%TF.GenerationSoftware,KiCad,Pcbnew,9.0.2*%
%TF.CreationDate,2025-07-21T18:03:53+01:00*%
%TF.ProjectId,ISOLATION,49534f4c-4154-4494-9f4e-2e6b69636164,rev?*%
%TF.SameCoordinates,Original*%
%TF.FileFunction,Legend,Top*%
%TF.FilePolarity,Positive*%
%FSLAX46Y46*%
G04 Gerber Fmt 4.6, Leading zero omitted, Abs format (unit mm)*
G04 Created by KiCad (PCBNEW 9.0.2) date 2025-07-21 18:03:53*
%MOMM*%
%LPD*%
G01*
G04 APERTURE LIST*
%ADD10C,0.400000*%
%ADD11C,0.250000*%
%ADD12C,0.150000*%
%ADD13C,0.120000*%
G04 APERTURE END LIST*
D10*
X117709347Y-78424438D02*
X117709347Y-77091104D01*
X117709347Y-76424438D02*
X117614109Y-76519676D01*
X117614109Y-76519676D02*
X117709347Y-76614914D01*
X117709347Y-76614914D02*
X117804585Y-76519676D01*
X117804585Y-76519676D02*
X117709347Y-76424438D01*
X117709347Y-76424438D02*
X117709347Y-76614914D01*
X118566490Y-78329200D02*
X118756966Y-78424438D01*
X118756966Y-78424438D02*
X119137918Y-78424438D01*
X119137918Y-78424438D02*
X119328395Y-78329200D01*
X119328395Y-78329200D02*
X119423633Y-78138723D01*
X119423633Y-78138723D02*
X119423633Y-78043485D01*
X119423633Y-78043485D02*
X119328395Y-77853009D01*
X119328395Y-77853009D02*
X119137918Y-77757771D01*
X119137918Y-77757771D02*
X118852204Y-77757771D01*
X118852204Y-77757771D02*
X118661728Y-77662533D01*
X118661728Y-77662533D02*
X118566490Y-77472057D01*
X118566490Y-77472057D02*
X118566490Y-77376819D01*
X118566490Y-77376819D02*
X118661728Y-77186342D01*
X118661728Y-77186342D02*
X118852204Y-77091104D01*
X118852204Y-77091104D02*
X119137918Y-77091104D01*
X119137918Y-77091104D02*
X119328395Y-77186342D01*
X120566490Y-78424438D02*
X120376014Y-78329200D01*
X120376014Y-78329200D02*
X120280776Y-78233961D01*
X120280776Y-78233961D02*
X120185538Y-78043485D01*
X120185538Y-78043485D02*
X120185538Y-77472057D01*
X120185538Y-77472057D02*
X120280776Y-77281580D01*
X120280776Y-77281580D02*
X120376014Y-77186342D01*
X120376014Y-77186342D02*
X120566490Y-77091104D01*
X120566490Y-77091104D02*
X120852205Y-77091104D01*
X120852205Y-77091104D02*
X121042681Y-77186342D01*
X121042681Y-77186342D02*
X121137919Y-77281580D01*
X121137919Y-77281580D02*
X121233157Y-77472057D01*
X121233157Y-77472057D02*
X121233157Y-78043485D01*
X121233157Y-78043485D02*
X121137919Y-78233961D01*
X121137919Y-78233961D02*
X121042681Y-78329200D01*
X121042681Y-78329200D02*
X120852205Y-78424438D01*
X120852205Y-78424438D02*
X120566490Y-78424438D01*
X122376014Y-78424438D02*
X122185538Y-78329200D01*
X122185538Y-78329200D02*
X122090300Y-78138723D01*
X122090300Y-78138723D02*
X122090300Y-76424438D01*
X123899824Y-78329200D02*
X123709348Y-78424438D01*
X123709348Y-78424438D02*
X123328395Y-78424438D01*
X123328395Y-78424438D02*
X123137919Y-78329200D01*
X123137919Y-78329200D02*
X123042681Y-78138723D01*
X123042681Y-78138723D02*
X123042681Y-77376819D01*
X123042681Y-77376819D02*
X123137919Y-77186342D01*
X123137919Y-77186342D02*
X123328395Y-77091104D01*
X123328395Y-77091104D02*
X123709348Y-77091104D01*
X123709348Y-77091104D02*
X123899824Y-77186342D01*
X123899824Y-77186342D02*
X123995062Y-77376819D01*
X123995062Y-77376819D02*
X123995062Y-77567295D01*
X123995062Y-77567295D02*
X123042681Y-77757771D01*
X125709348Y-78424438D02*
X125709348Y-77376819D01*
X125709348Y-77376819D02*
X125614110Y-77186342D01*
X125614110Y-77186342D02*
X125423634Y-77091104D01*
X125423634Y-77091104D02*
X125042681Y-77091104D01*
X125042681Y-77091104D02*
X124852205Y-77186342D01*
X125709348Y-78329200D02*
X125518872Y-78424438D01*
X125518872Y-78424438D02*
X125042681Y-78424438D01*
X125042681Y-78424438D02*
X124852205Y-78329200D01*
X124852205Y-78329200D02*
X124756967Y-78138723D01*
X124756967Y-78138723D02*
X124756967Y-77948247D01*
X124756967Y-77948247D02*
X124852205Y-77757771D01*
X124852205Y-77757771D02*
X125042681Y-77662533D01*
X125042681Y-77662533D02*
X125518872Y-77662533D01*
X125518872Y-77662533D02*
X125709348Y-77567295D01*
X126376015Y-77091104D02*
X127137919Y-77091104D01*
X126661729Y-76424438D02*
X126661729Y-78138723D01*
X126661729Y-78138723D02*
X126756967Y-78329200D01*
X126756967Y-78329200D02*
X126947443Y-78424438D01*
X126947443Y-78424438D02*
X127137919Y-78424438D01*
D11*
X183236377Y-104082238D02*
X183141139Y-104034619D01*
X183141139Y-104034619D02*
X182998282Y-104034619D01*
X182998282Y-104034619D02*
X182855425Y-104082238D01*
X182855425Y-104082238D02*
X182760187Y-104177476D01*
X182760187Y-104177476D02*
X182712568Y-104272714D01*
X182712568Y-104272714D02*
X182664949Y-104463190D01*
X182664949Y-104463190D02*
X182664949Y-104606047D01*
X182664949Y-104606047D02*
X182712568Y-104796523D01*
X182712568Y-104796523D02*
X182760187Y-104891761D01*
X182760187Y-104891761D02*
X182855425Y-104987000D01*
X182855425Y-104987000D02*
X182998282Y-105034619D01*
X182998282Y-105034619D02*
X183093520Y-105034619D01*
X183093520Y-105034619D02*
X183236377Y-104987000D01*
X183236377Y-104987000D02*
X183283996Y-104939380D01*
X183283996Y-104939380D02*
X183283996Y-104606047D01*
X183283996Y-104606047D02*
X183093520Y-104606047D01*
X185188759Y-104987000D02*
X185331616Y-105034619D01*
X185331616Y-105034619D02*
X185569711Y-105034619D01*
X185569711Y-105034619D02*
X185664949Y-104987000D01*
X185664949Y-104987000D02*
X185712568Y-104939380D01*
X185712568Y-104939380D02*
X185760187Y-104844142D01*
X185760187Y-104844142D02*
X185760187Y-104748904D01*
X185760187Y-104748904D02*
X185712568Y-104653666D01*
X185712568Y-104653666D02*
X185664949Y-104606047D01*
X185664949Y-104606047D02*
X185569711Y-104558428D01*
X185569711Y-104558428D02*
X185379235Y-104510809D01*
X185379235Y-104510809D02*
X185283997Y-104463190D01*
X185283997Y-104463190D02*
X185236378Y-104415571D01*
X185236378Y-104415571D02*
X185188759Y-104320333D01*
X185188759Y-104320333D02*
X185188759Y-104225095D01*
X185188759Y-104225095D02*
X185236378Y-104129857D01*
X185236378Y-104129857D02*
X185283997Y-104082238D01*
X185283997Y-104082238D02*
X185379235Y-104034619D01*
X185379235Y-104034619D02*
X185617330Y-104034619D01*
X185617330Y-104034619D02*
X185760187Y-104082238D01*
X175157000Y-100105050D02*
X175204619Y-99962193D01*
X175204619Y-99962193D02*
X175204619Y-99724098D01*
X175204619Y-99724098D02*
X175157000Y-99628860D01*
X175157000Y-99628860D02*
X175109380Y-99581241D01*
X175109380Y-99581241D02*
X175014142Y-99533622D01*
X175014142Y-99533622D02*
X174918904Y-99533622D01*
X174918904Y-99533622D02*
X174823666Y-99581241D01*
X174823666Y-99581241D02*
X174776047Y-99628860D01*
X174776047Y-99628860D02*
X174728428Y-99724098D01*
X174728428Y-99724098D02*
X174680809Y-99914574D01*
X174680809Y-99914574D02*
X174633190Y-100009812D01*
X174633190Y-100009812D02*
X174585571Y-100057431D01*
X174585571Y-100057431D02*
X174490333Y-100105050D01*
X174490333Y-100105050D02*
X174395095Y-100105050D01*
X174395095Y-100105050D02*
X174299857Y-100057431D01*
X174299857Y-100057431D02*
X174252238Y-100009812D01*
X174252238Y-100009812D02*
X174204619Y-99914574D01*
X174204619Y-99914574D02*
X174204619Y-99676479D01*
X174204619Y-99676479D02*
X174252238Y-99533622D01*
X175204619Y-95295525D02*
X174204619Y-95295525D01*
X174204619Y-95295525D02*
X174204619Y-95057430D01*
X174204619Y-95057430D02*
X174252238Y-94914573D01*
X174252238Y-94914573D02*
X174347476Y-94819335D01*
X174347476Y-94819335D02*
X174442714Y-94771716D01*
X174442714Y-94771716D02*
X174633190Y-94724097D01*
X174633190Y-94724097D02*
X174776047Y-94724097D01*
X174776047Y-94724097D02*
X174966523Y-94771716D01*
X174966523Y-94771716D02*
X175061761Y-94819335D01*
X175061761Y-94819335D02*
X175157000Y-94914573D01*
X175157000Y-94914573D02*
X175204619Y-95057430D01*
X175204619Y-95057430D02*
X175204619Y-95295525D01*
X128512047Y-98622568D02*
X127512047Y-98622568D01*
X128464428Y-98622568D02*
X128512047Y-98717806D01*
X128512047Y-98717806D02*
X128512047Y-98908282D01*
X128512047Y-98908282D02*
X128464428Y-99003520D01*
X128464428Y-99003520D02*
X128416809Y-99051139D01*
X128416809Y-99051139D02*
X128321571Y-99098758D01*
X128321571Y-99098758D02*
X128035857Y-99098758D01*
X128035857Y-99098758D02*
X127940619Y-99051139D01*
X127940619Y-99051139D02*
X127893000Y-99003520D01*
X127893000Y-99003520D02*
X127845380Y-98908282D01*
X127845380Y-98908282D02*
X127845380Y-98717806D01*
X127845380Y-98717806D02*
X127893000Y-98622568D01*
X128512047Y-99955901D02*
X127845380Y-99955901D01*
X128512047Y-99527330D02*
X127988238Y-99527330D01*
X127988238Y-99527330D02*
X127893000Y-99574949D01*
X127893000Y-99574949D02*
X127845380Y-99670187D01*
X127845380Y-99670187D02*
X127845380Y-99813044D01*
X127845380Y-99813044D02*
X127893000Y-99908282D01*
X127893000Y-99908282D02*
X127940619Y-99955901D01*
X127845380Y-100574949D02*
X127893000Y-100479711D01*
X127893000Y-100479711D02*
X127988238Y-100432092D01*
X127988238Y-100432092D02*
X128845380Y-100432092D01*
X127893000Y-100908283D02*
X127845380Y-101003521D01*
X127845380Y-101003521D02*
X127845380Y-101193997D01*
X127845380Y-101193997D02*
X127893000Y-101289235D01*
X127893000Y-101289235D02*
X127988238Y-101336854D01*
X127988238Y-101336854D02*
X128035857Y-101336854D01*
X128035857Y-101336854D02*
X128131095Y-101289235D01*
X128131095Y-101289235D02*
X128178714Y-101193997D01*
X128178714Y-101193997D02*
X128178714Y-101051140D01*
X128178714Y-101051140D02*
X128226333Y-100955902D01*
X128226333Y-100955902D02*
X128321571Y-100908283D01*
X128321571Y-100908283D02*
X128369190Y-100908283D01*
X128369190Y-100908283D02*
X128464428Y-100955902D01*
X128464428Y-100955902D02*
X128512047Y-101051140D01*
X128512047Y-101051140D02*
X128512047Y-101193997D01*
X128512047Y-101193997D02*
X128464428Y-101289235D01*
X127893000Y-102146378D02*
X127845380Y-102051140D01*
X127845380Y-102051140D02*
X127845380Y-101860664D01*
X127845380Y-101860664D02*
X127893000Y-101765426D01*
X127893000Y-101765426D02*
X127988238Y-101717807D01*
X127988238Y-101717807D02*
X128369190Y-101717807D01*
X128369190Y-101717807D02*
X128464428Y-101765426D01*
X128464428Y-101765426D02*
X128512047Y-101860664D01*
X128512047Y-101860664D02*
X128512047Y-102051140D01*
X128512047Y-102051140D02*
X128464428Y-102146378D01*
X128464428Y-102146378D02*
X128369190Y-102193997D01*
X128369190Y-102193997D02*
X128273952Y-102193997D01*
X128273952Y-102193997D02*
X128178714Y-101717807D01*
X127464428Y-102908283D02*
X127512047Y-102860664D01*
X127512047Y-102860664D02*
X127654904Y-102765426D01*
X127654904Y-102765426D02*
X127750142Y-102717807D01*
X127750142Y-102717807D02*
X127893000Y-102670188D01*
X127893000Y-102670188D02*
X128131095Y-102622569D01*
X128131095Y-102622569D02*
X128321571Y-102622569D01*
X128321571Y-102622569D02*
X128559666Y-102670188D01*
X128559666Y-102670188D02*
X128702523Y-102717807D01*
X128702523Y-102717807D02*
X128797761Y-102765426D01*
X128797761Y-102765426D02*
X128940619Y-102860664D01*
X128940619Y-102860664D02*
X128988238Y-102908283D01*
X128845380Y-103193998D02*
X128845380Y-103813045D01*
X128845380Y-103813045D02*
X128464428Y-103479712D01*
X128464428Y-103479712D02*
X128464428Y-103622569D01*
X128464428Y-103622569D02*
X128416809Y-103717807D01*
X128416809Y-103717807D02*
X128369190Y-103765426D01*
X128369190Y-103765426D02*
X128273952Y-103813045D01*
X128273952Y-103813045D02*
X128035857Y-103813045D01*
X128035857Y-103813045D02*
X127940619Y-103765426D01*
X127940619Y-103765426D02*
X127893000Y-103717807D01*
X127893000Y-103717807D02*
X127845380Y-103622569D01*
X127845380Y-103622569D02*
X127845380Y-103336855D01*
X127845380Y-103336855D02*
X127893000Y-103241617D01*
X127893000Y-103241617D02*
X127940619Y-103193998D01*
X127940619Y-104241617D02*
X127893000Y-104289236D01*
X127893000Y-104289236D02*
X127845380Y-104241617D01*
X127845380Y-104241617D02*
X127893000Y-104193998D01*
X127893000Y-104193998D02*
X127940619Y-104241617D01*
X127940619Y-104241617D02*
X127845380Y-104241617D01*
X128845380Y-104622569D02*
X128845380Y-105241616D01*
X128845380Y-105241616D02*
X128464428Y-104908283D01*
X128464428Y-104908283D02*
X128464428Y-105051140D01*
X128464428Y-105051140D02*
X128416809Y-105146378D01*
X128416809Y-105146378D02*
X128369190Y-105193997D01*
X128369190Y-105193997D02*
X128273952Y-105241616D01*
X128273952Y-105241616D02*
X128035857Y-105241616D01*
X128035857Y-105241616D02*
X127940619Y-105193997D01*
X127940619Y-105193997D02*
X127893000Y-105146378D01*
X127893000Y-105146378D02*
X127845380Y-105051140D01*
X127845380Y-105051140D02*
X127845380Y-104765426D01*
X127845380Y-104765426D02*
X127893000Y-104670188D01*
X127893000Y-104670188D02*
X127940619Y-104622569D01*
X128893000Y-106384473D02*
X127607285Y-105527331D01*
X128845380Y-107193997D02*
X128845380Y-106717807D01*
X128845380Y-106717807D02*
X128369190Y-106670188D01*
X128369190Y-106670188D02*
X128416809Y-106717807D01*
X128416809Y-106717807D02*
X128464428Y-106813045D01*
X128464428Y-106813045D02*
X128464428Y-107051140D01*
X128464428Y-107051140D02*
X128416809Y-107146378D01*
X128416809Y-107146378D02*
X128369190Y-107193997D01*
X128369190Y-107193997D02*
X128273952Y-107241616D01*
X128273952Y-107241616D02*
X128035857Y-107241616D01*
X128035857Y-107241616D02*
X127940619Y-107193997D01*
X127940619Y-107193997D02*
X127893000Y-107146378D01*
X127893000Y-107146378D02*
X127845380Y-107051140D01*
X127845380Y-107051140D02*
X127845380Y-106813045D01*
X127845380Y-106813045D02*
X127893000Y-106717807D01*
X127893000Y-106717807D02*
X127940619Y-106670188D01*
X127464428Y-107574950D02*
X127512047Y-107622569D01*
X127512047Y-107622569D02*
X127654904Y-107717807D01*
X127654904Y-107717807D02*
X127750142Y-107765426D01*
X127750142Y-107765426D02*
X127893000Y-107813045D01*
X127893000Y-107813045D02*
X128131095Y-107860664D01*
X128131095Y-107860664D02*
X128321571Y-107860664D01*
X128321571Y-107860664D02*
X128559666Y-107813045D01*
X128559666Y-107813045D02*
X128702523Y-107765426D01*
X128702523Y-107765426D02*
X128797761Y-107717807D01*
X128797761Y-107717807D02*
X128940619Y-107622569D01*
X128940619Y-107622569D02*
X128988238Y-107574950D01*
X128845380Y-108193998D02*
X127845380Y-108527331D01*
X127845380Y-108527331D02*
X128845380Y-108860664D01*
X174313666Y-85497431D02*
X174313666Y-84735527D01*
X174694619Y-85116479D02*
X173932714Y-85116479D01*
X174694619Y-83735527D02*
X174694619Y-84306955D01*
X174694619Y-84021241D02*
X173694619Y-84021241D01*
X173694619Y-84021241D02*
X173837476Y-84116479D01*
X173837476Y-84116479D02*
X173932714Y-84211717D01*
X173932714Y-84211717D02*
X173980333Y-84306955D01*
X173789857Y-83354574D02*
X173742238Y-83306955D01*
X173742238Y-83306955D02*
X173694619Y-83211717D01*
X173694619Y-83211717D02*
X173694619Y-82973622D01*
X173694619Y-82973622D02*
X173742238Y-82878384D01*
X173742238Y-82878384D02*
X173789857Y-82830765D01*
X173789857Y-82830765D02*
X173885095Y-82783146D01*
X173885095Y-82783146D02*
X173980333Y-82783146D01*
X173980333Y-82783146D02*
X174123190Y-82830765D01*
X174123190Y-82830765D02*
X174694619Y-83402193D01*
X174694619Y-83402193D02*
X174694619Y-82783146D01*
X173647000Y-81640289D02*
X174932714Y-82497431D01*
X174694619Y-80783146D02*
X174694619Y-81354574D01*
X174694619Y-81068860D02*
X173694619Y-81068860D01*
X173694619Y-81068860D02*
X173837476Y-81164098D01*
X173837476Y-81164098D02*
X173932714Y-81259336D01*
X173932714Y-81259336D02*
X173980333Y-81354574D01*
X173694619Y-79878384D02*
X173694619Y-80354574D01*
X173694619Y-80354574D02*
X174170809Y-80402193D01*
X174170809Y-80402193D02*
X174123190Y-80354574D01*
X174123190Y-80354574D02*
X174075571Y-80259336D01*
X174075571Y-80259336D02*
X174075571Y-80021241D01*
X174075571Y-80021241D02*
X174123190Y-79926003D01*
X174123190Y-79926003D02*
X174170809Y-79878384D01*
X174170809Y-79878384D02*
X174266047Y-79830765D01*
X174266047Y-79830765D02*
X174504142Y-79830765D01*
X174504142Y-79830765D02*
X174599380Y-79878384D01*
X174599380Y-79878384D02*
X174647000Y-79926003D01*
X174647000Y-79926003D02*
X174694619Y-80021241D01*
X174694619Y-80021241D02*
X174694619Y-80259336D01*
X174694619Y-80259336D02*
X174647000Y-80354574D01*
X174647000Y-80354574D02*
X174599380Y-80402193D01*
X174313666Y-79402193D02*
X174313666Y-78640289D01*
D12*
X180006666Y-105104819D02*
X180006666Y-105819104D01*
X180006666Y-105819104D02*
X179959047Y-105961961D01*
X179959047Y-105961961D02*
X179863809Y-106057200D01*
X179863809Y-106057200D02*
X179720952Y-106104819D01*
X179720952Y-106104819D02*
X179625714Y-106104819D01*
X180911428Y-105438152D02*
X180911428Y-106104819D01*
X180673333Y-105057200D02*
X180435238Y-105771485D01*
X180435238Y-105771485D02*
X181054285Y-105771485D01*
X147023333Y-97724819D02*
X146690000Y-97248628D01*
X146451905Y-97724819D02*
X146451905Y-96724819D01*
X146451905Y-96724819D02*
X146832857Y-96724819D01*
X146832857Y-96724819D02*
X146928095Y-96772438D01*
X146928095Y-96772438D02*
X146975714Y-96820057D01*
X146975714Y-96820057D02*
X147023333Y-96915295D01*
X147023333Y-96915295D02*
X147023333Y-97058152D01*
X147023333Y-97058152D02*
X146975714Y-97153390D01*
X146975714Y-97153390D02*
X146928095Y-97201009D01*
X146928095Y-97201009D02*
X146832857Y-97248628D01*
X146832857Y-97248628D02*
X146451905Y-97248628D01*
X147975714Y-97724819D02*
X147404286Y-97724819D01*
X147690000Y-97724819D02*
X147690000Y-96724819D01*
X147690000Y-96724819D02*
X147594762Y-96867676D01*
X147594762Y-96867676D02*
X147499524Y-96962914D01*
X147499524Y-96962914D02*
X147404286Y-97010533D01*
X159344819Y-89623094D02*
X158344819Y-89623094D01*
X158821009Y-89623094D02*
X158821009Y-89051666D01*
X159344819Y-89051666D02*
X158344819Y-89051666D01*
X159297200Y-88623094D02*
X159344819Y-88480237D01*
X159344819Y-88480237D02*
X159344819Y-88242142D01*
X159344819Y-88242142D02*
X159297200Y-88146904D01*
X159297200Y-88146904D02*
X159249580Y-88099285D01*
X159249580Y-88099285D02*
X159154342Y-88051666D01*
X159154342Y-88051666D02*
X159059104Y-88051666D01*
X159059104Y-88051666D02*
X158963866Y-88099285D01*
X158963866Y-88099285D02*
X158916247Y-88146904D01*
X158916247Y-88146904D02*
X158868628Y-88242142D01*
X158868628Y-88242142D02*
X158821009Y-88432618D01*
X158821009Y-88432618D02*
X158773390Y-88527856D01*
X158773390Y-88527856D02*
X158725771Y-88575475D01*
X158725771Y-88575475D02*
X158630533Y-88623094D01*
X158630533Y-88623094D02*
X158535295Y-88623094D01*
X158535295Y-88623094D02*
X158440057Y-88575475D01*
X158440057Y-88575475D02*
X158392438Y-88527856D01*
X158392438Y-88527856D02*
X158344819Y-88432618D01*
X158344819Y-88432618D02*
X158344819Y-88194523D01*
X158344819Y-88194523D02*
X158392438Y-88051666D01*
X159344819Y-87099285D02*
X159344819Y-87670713D01*
X159344819Y-87384999D02*
X158344819Y-87384999D01*
X158344819Y-87384999D02*
X158487676Y-87480237D01*
X158487676Y-87480237D02*
X158582914Y-87575475D01*
X158582914Y-87575475D02*
X158630533Y-87670713D01*
X120943333Y-85824819D02*
X120610000Y-85348628D01*
X120371905Y-85824819D02*
X120371905Y-84824819D01*
X120371905Y-84824819D02*
X120752857Y-84824819D01*
X120752857Y-84824819D02*
X120848095Y-84872438D01*
X120848095Y-84872438D02*
X120895714Y-84920057D01*
X120895714Y-84920057D02*
X120943333Y-85015295D01*
X120943333Y-85015295D02*
X120943333Y-85158152D01*
X120943333Y-85158152D02*
X120895714Y-85253390D01*
X120895714Y-85253390D02*
X120848095Y-85301009D01*
X120848095Y-85301009D02*
X120752857Y-85348628D01*
X120752857Y-85348628D02*
X120371905Y-85348628D01*
X121324286Y-84920057D02*
X121371905Y-84872438D01*
X121371905Y-84872438D02*
X121467143Y-84824819D01*
X121467143Y-84824819D02*
X121705238Y-84824819D01*
X121705238Y-84824819D02*
X121800476Y-84872438D01*
X121800476Y-84872438D02*
X121848095Y-84920057D01*
X121848095Y-84920057D02*
X121895714Y-85015295D01*
X121895714Y-85015295D02*
X121895714Y-85110533D01*
X121895714Y-85110533D02*
X121848095Y-85253390D01*
X121848095Y-85253390D02*
X121276667Y-85824819D01*
X121276667Y-85824819D02*
X121895714Y-85824819D01*
X140443333Y-72319580D02*
X140395714Y-72367200D01*
X140395714Y-72367200D02*
X140252857Y-72414819D01*
X140252857Y-72414819D02*
X140157619Y-72414819D01*
X140157619Y-72414819D02*
X140014762Y-72367200D01*
X140014762Y-72367200D02*
X139919524Y-72271961D01*
X139919524Y-72271961D02*
X139871905Y-72176723D01*
X139871905Y-72176723D02*
X139824286Y-71986247D01*
X139824286Y-71986247D02*
X139824286Y-71843390D01*
X139824286Y-71843390D02*
X139871905Y-71652914D01*
X139871905Y-71652914D02*
X139919524Y-71557676D01*
X139919524Y-71557676D02*
X140014762Y-71462438D01*
X140014762Y-71462438D02*
X140157619Y-71414819D01*
X140157619Y-71414819D02*
X140252857Y-71414819D01*
X140252857Y-71414819D02*
X140395714Y-71462438D01*
X140395714Y-71462438D02*
X140443333Y-71510057D01*
X141395714Y-72414819D02*
X140824286Y-72414819D01*
X141110000Y-72414819D02*
X141110000Y-71414819D01*
X141110000Y-71414819D02*
X141014762Y-71557676D01*
X141014762Y-71557676D02*
X140919524Y-71652914D01*
X140919524Y-71652914D02*
X140824286Y-71700533D01*
X131463095Y-84809819D02*
X131463095Y-85619342D01*
X131463095Y-85619342D02*
X131510714Y-85714580D01*
X131510714Y-85714580D02*
X131558333Y-85762200D01*
X131558333Y-85762200D02*
X131653571Y-85809819D01*
X131653571Y-85809819D02*
X131844047Y-85809819D01*
X131844047Y-85809819D02*
X131939285Y-85762200D01*
X131939285Y-85762200D02*
X131986904Y-85714580D01*
X131986904Y-85714580D02*
X132034523Y-85619342D01*
X132034523Y-85619342D02*
X132034523Y-84809819D01*
X133034523Y-85809819D02*
X132463095Y-85809819D01*
X132748809Y-85809819D02*
X132748809Y-84809819D01*
X132748809Y-84809819D02*
X132653571Y-84952676D01*
X132653571Y-84952676D02*
X132558333Y-85047914D01*
X132558333Y-85047914D02*
X132463095Y-85095533D01*
D13*
%TO.C,J3*%
X176370000Y-92660000D02*
X176370000Y-95020000D01*
X176370000Y-95620000D02*
X176370000Y-103060000D01*
X176990000Y-92660000D02*
X176990000Y-103060000D01*
X178490000Y-92660000D02*
X178490000Y-103060000D01*
X183390000Y-92660000D02*
X183390000Y-103060000D01*
X186410000Y-92660000D02*
X176370000Y-92660000D01*
X186410000Y-92660000D02*
X186410000Y-103060000D01*
X186410000Y-103060000D02*
X176370000Y-103060000D01*
X176370000Y-95320000D02*
X175760000Y-95760000D01*
X175760000Y-94880000D01*
X176370000Y-95320000D01*
G36*
X176370000Y-95320000D02*
G01*
X175760000Y-95760000D01*
X175760000Y-94880000D01*
X176370000Y-95320000D01*
G37*
%TO.C,J4*%
X182200000Y-108140000D02*
X182200000Y-107030000D01*
X183310000Y-108140000D02*
X182200000Y-108140000D01*
X184310000Y-105920000D02*
X186420000Y-105920000D01*
X184310000Y-108140000D02*
X184310000Y-105920000D01*
X184310000Y-108140000D02*
X186420000Y-108140000D01*
X186420000Y-108140000D02*
X186420000Y-105920000D01*
%TO.C,J1*%
X116155000Y-98242500D02*
X116155000Y-108282500D01*
X116155000Y-98242500D02*
X126555000Y-98242500D01*
X116155000Y-101262500D02*
X126555000Y-101262500D01*
X116155000Y-106162500D02*
X126555000Y-106162500D01*
X116155000Y-107662500D02*
X126555000Y-107662500D01*
X116155000Y-108282500D02*
X118515000Y-108282500D01*
X119115000Y-108282500D02*
X126555000Y-108282500D01*
X126555000Y-98242500D02*
X126555000Y-108282500D01*
X119255000Y-108892500D02*
X118375000Y-108892500D01*
X118815000Y-108282500D01*
X119255000Y-108892500D01*
G36*
X119255000Y-108892500D02*
G01*
X118375000Y-108892500D01*
X118815000Y-108282500D01*
X119255000Y-108892500D01*
G37*
%TO.C,D1*%
X143590000Y-101990000D02*
X143590000Y-103210000D01*
X143590000Y-101990000D02*
X144900000Y-101990000D01*
X143590000Y-103210000D02*
X144900000Y-103210000D01*
%TO.C,Q2*%
X173530000Y-91620000D02*
X173530000Y-88020000D01*
X169080000Y-89820000D02*
G75*
G02*
X173518478Y-87981522I2600000J0D01*
G01*
X173518478Y-91658478D02*
G75*
G02*
X169079999Y-89820000I-1838478J1838478D01*
G01*
%TO.C,R1*%
X144017742Y-97427500D02*
X144492258Y-97427500D01*
X144017742Y-98472500D02*
X144492258Y-98472500D01*
%TO.C,Q1*%
X153880000Y-91620000D02*
X153880000Y-88020000D01*
X149430000Y-89820000D02*
G75*
G02*
X153868478Y-87981522I2600000J0D01*
G01*
X153868478Y-91658478D02*
G75*
G02*
X149429999Y-89820000I-1838478J1838478D01*
G01*
%TO.C,R3*%
X140390000Y-81910000D02*
X141160000Y-81910000D01*
X148470000Y-81910000D02*
X147700000Y-81910000D01*
X141160000Y-80540000D02*
X147700000Y-80540000D01*
X147700000Y-83280000D01*
X141160000Y-83280000D01*
X141160000Y-80540000D01*
%TO.C,J2*%
X176370000Y-77750000D02*
X176370000Y-80110000D01*
X176370000Y-80710000D02*
X176370000Y-88150000D01*
X176990000Y-77750000D02*
X176990000Y-88150000D01*
X178490000Y-77750000D02*
X178490000Y-88150000D01*
X183390000Y-77750000D02*
X183390000Y-88150000D01*
X186410000Y-77750000D02*
X176370000Y-77750000D01*
X186410000Y-77750000D02*
X186410000Y-88150000D01*
X186410000Y-88150000D02*
X176370000Y-88150000D01*
X176370000Y-80410000D02*
X175760000Y-80850000D01*
X175760000Y-79970000D01*
X176370000Y-80410000D01*
G36*
X176370000Y-80410000D02*
G01*
X175760000Y-80850000D01*
X175760000Y-79970000D01*
X176370000Y-80410000D01*
G37*
%TO.C,HS1*%
X154760000Y-70850000D02*
X154880000Y-70730000D01*
X154760000Y-105870000D02*
X154880000Y-105990000D01*
X154780000Y-75670000D02*
X154840000Y-75490000D01*
X154780000Y-101050000D02*
X154840000Y-101230000D01*
X154790000Y-79790000D02*
X158500000Y-78180000D01*
X154790000Y-80460000D02*
X154790000Y-79790000D01*
X154790000Y-96260000D02*
X154790000Y-96930000D01*
X154790000Y-96930000D02*
X158500000Y-98540000D01*
X154840000Y-75490000D02*
X157640000Y-76150000D01*
X154840000Y-101230000D02*
X157640000Y-100570000D01*
X154880000Y-70730000D02*
X158650000Y-72880000D01*
X154880000Y-105990000D02*
X158650000Y-103840000D01*
X157640000Y-76150000D02*
X154760000Y-70850000D01*
X157640000Y-100570000D02*
X154760000Y-105870000D01*
X157970000Y-70830000D02*
X158120000Y-70740000D01*
X157970000Y-105890000D02*
X158120000Y-105980000D01*
X158120000Y-70740000D02*
X160010000Y-72700000D01*
X158120000Y-105980000D02*
X160010000Y-104020000D01*
X158500000Y-78170000D02*
X154780000Y-75670000D01*
X158500000Y-98550000D02*
X154780000Y-101050000D01*
X158650000Y-72880000D02*
X157970000Y-70830000D01*
X158650000Y-103840000D02*
X157970000Y-105890000D01*
X160540000Y-80460000D02*
X154790000Y-80460000D01*
X160540000Y-88360000D02*
X160540000Y-80460000D01*
X160540000Y-88360000D02*
X160540000Y-96260000D01*
X160540000Y-96260000D02*
X154790000Y-96260000D01*
X162240000Y-80460000D02*
X167990000Y-80460000D01*
X162240000Y-88360000D02*
X162240000Y-80460000D01*
X162240000Y-88360000D02*
X162240000Y-96260000D01*
X162240000Y-96260000D02*
X167990000Y-96260000D01*
X164130000Y-72880000D02*
X164810000Y-70830000D01*
X164130000Y-103840000D02*
X164810000Y-105890000D01*
X164280000Y-78170000D02*
X168000000Y-75670000D01*
X164280000Y-98550000D02*
X168000000Y-101050000D01*
X164660000Y-70740000D02*
X162770000Y-72700000D01*
X164660000Y-105980000D02*
X162770000Y-104020000D01*
X164810000Y-70830000D02*
X164660000Y-70740000D01*
X164810000Y-105890000D02*
X164660000Y-105980000D01*
X165140000Y-76150000D02*
X168020000Y-70850000D01*
X165140000Y-100570000D02*
X168020000Y-105870000D01*
X167900000Y-70730000D02*
X164130000Y-72880000D01*
X167900000Y-105990000D02*
X164130000Y-103840000D01*
X167940000Y-75490000D02*
X165140000Y-76150000D01*
X167940000Y-101230000D02*
X165140000Y-100570000D01*
X167990000Y-79790000D02*
X164280000Y-78180000D01*
X167990000Y-80460000D02*
X167990000Y-79790000D01*
X167990000Y-96260000D02*
X167990000Y-96930000D01*
X167990000Y-96930000D02*
X164280000Y-98540000D01*
X168000000Y-75670000D02*
X167940000Y-75490000D01*
X168000000Y-101050000D02*
X167940000Y-101230000D01*
X168020000Y-70850000D02*
X167900000Y-70730000D01*
X168020000Y-105870000D02*
X167900000Y-105990000D01*
%TO.C,R2*%
X119582936Y-86290000D02*
X122637064Y-86290000D01*
X119582936Y-89010000D02*
X122637064Y-89010000D01*
%TO.C,C1*%
X138350000Y-73964437D02*
X138350000Y-74100000D01*
X138350000Y-73964437D02*
X139414437Y-72900000D01*
X138350000Y-76355563D02*
X138350000Y-76220000D01*
X138350000Y-76355563D02*
X139414437Y-77420000D01*
X139414437Y-72900000D02*
X142870000Y-72900000D01*
X139414437Y-77420000D02*
X142870000Y-77420000D01*
X142870000Y-72900000D02*
X142870000Y-74100000D01*
X142870000Y-77420000D02*
X142870000Y-76220000D01*
%TO.C,U1*%
X129575000Y-86355000D02*
X129575000Y-94095000D01*
X129575000Y-94095000D02*
X134875000Y-94095000D01*
X131225000Y-86355000D02*
X129575000Y-86355000D01*
X134875000Y-86355000D02*
X133225000Y-86355000D01*
X134875000Y-94095000D02*
X134875000Y-86355000D01*
X133225000Y-86355000D02*
G75*
G02*
X131225000Y-86355000I-1000000J0D01*
G01*
%TD*%
M02*
