M48
; DRILL file {KiCad 9.0.2} date 2025-07-21T18:03:55+0100
; FORMAT={-:-/ absolute / metric / decimal}
; #@! TF.CreationDate,2025-07-21T18:03:55+01:00
; #@! TF.GenerationSoftware,Kicad,Pcbnew,9.0.2
; #@! TF.FileFunction,Plated,1,2,PTH
FMAT,2
METRIC
; #@! TA.AperFunction,Plated,PTH,ViaDrill
T1C0.300
; #@! TA.AperFunction,Plated,PTH,ComponentDrill
T2C0.750
; #@! TA.AperFunction,Plated,PTH,ComponentDrill
T3C0.800
; #@! TA.AperFunction,Plated,PTH,ComponentDrill
T4C1.300
; #@! TA.AperFunction,Plated,PTH,ComponentDrill
T5C3.500
%
G90
G05
T1
X126.28Y-88.86
X126.28Y-90.313
X126.28Y-91.767
X126.28Y-93.22
X129.57Y-98.18
X129.57Y-99.593
X129.57Y-101.006
X129.57Y-102.419
X129.57Y-103.831
X129.57Y-105.244
X129.57Y-106.657
X129.57Y-108.07
X137.21Y-80.23
X137.21Y-81.387
X137.21Y-82.543
X137.21Y-83.7
X138.1Y-91.29
X138.1Y-92.447
X138.1Y-93.603
X138.1Y-94.76
X139.5Y-91.33
X139.5Y-92.487
X139.5Y-93.643
X139.5Y-94.8
X144.78Y-73.49
X144.78Y-74.647
X144.78Y-75.803
X144.78Y-76.96
X150.46Y-86.48
X151.617Y-86.48
X152.773Y-86.48
X153.93Y-86.48
X168.48Y-88.54
X171.72Y-86.3
X174.43Y-88.54
X179.28Y-91.49
X179.31Y-89.05
X180.437Y-91.49
X180.467Y-89.05
X181.593Y-91.49
X181.623Y-89.05
X182.75Y-91.49
X182.78Y-89.05
T2
X152.03Y-88.55
X152.03Y-89.82
X152.03Y-91.09
X171.68Y-88.55
X171.68Y-89.82
X171.68Y-91.09
T3
X128.415Y-87.685
X128.415Y-90.225
X128.415Y-92.765
X136.035Y-87.685
X136.035Y-90.225
X136.035Y-92.765
X139.35Y-81.91
X149.51Y-81.91
X183.31Y-107.03
X185.31Y-107.03
T4
X118.815Y-103.562
X123.895Y-103.562
X181.09Y-80.41
X181.09Y-85.49
X181.09Y-95.32
X181.09Y-100.4
T5
X161.39Y-75.66
X161.39Y-101.06
M30
