%TF.GenerationSoftware,KiCad,Pcbnew,9.0.2*%
%TF.CreationDate,2025-07-21T18:03:53+01:00*%
%TF.ProjectId,ISOLATION,49534f4c-4154-4494-9f4e-2e6b69636164,rev?*%
%TF.SameCoordinates,Original*%
%TF.FileFunction,Copper,L1,Top*%
%TF.FilePolarity,Positive*%
%FSLAX46Y46*%
G04 Gerber Fmt 4.6, Leading zero omitted, Abs format (unit mm)*
G04 Created by KiCad (PCBNEW 9.0.2) date 2025-07-21 18:03:53*
%MOMM*%
%LPD*%
G01*
G04 APERTURE LIST*
G04 Aperture macros list*
%AMRoundRect*
0 Rectangle with rounded corners*
0 $1 Rounding radius*
0 $2 $3 $4 $5 $6 $7 $8 $9 X,Y pos of 4 corners*
0 Add a 4 corners polygon primitive as box body*
4,1,4,$2,$3,$4,$5,$6,$7,$8,$9,$2,$3,0*
0 Add four circle primitives for the rounded corners*
1,1,$1+$1,$2,$3*
1,1,$1+$1,$4,$5*
1,1,$1+$1,$6,$7*
1,1,$1+$1,$8,$9*
0 Add four rect primitives between the rounded corners*
20,1,$1+$1,$2,$3,$4,$5,0*
20,1,$1+$1,$4,$5,$6,$7,0*
20,1,$1+$1,$6,$7,$8,$9,0*
20,1,$1+$1,$8,$9,$2,$3,0*%
G04 Aperture macros list end*
%TA.AperFunction,ComponentPad*%
%ADD10RoundRect,0.250000X-1.050000X1.050000X-1.050000X-1.050000X1.050000X-1.050000X1.050000X1.050000X0*%
%TD*%
%TA.AperFunction,ComponentPad*%
%ADD11C,2.600000*%
%TD*%
%TA.AperFunction,ComponentPad*%
%ADD12R,1.350000X1.350000*%
%TD*%
%TA.AperFunction,ComponentPad*%
%ADD13C,1.350000*%
%TD*%
%TA.AperFunction,ComponentPad*%
%ADD14RoundRect,0.250000X-1.050000X-1.050000X1.050000X-1.050000X1.050000X1.050000X-1.050000X1.050000X0*%
%TD*%
%TA.AperFunction,SMDPad,CuDef*%
%ADD15RoundRect,0.050000X-0.150000X-0.300000X0.150000X-0.300000X0.150000X0.300000X-0.150000X0.300000X0*%
%TD*%
%TA.AperFunction,ComponentPad*%
%ADD16R,1.500000X1.050000*%
%TD*%
%TA.AperFunction,ComponentPad*%
%ADD17O,1.500000X1.050000*%
%TD*%
%TA.AperFunction,SMDPad,CuDef*%
%ADD18RoundRect,0.200000X-0.200000X-0.275000X0.200000X-0.275000X0.200000X0.275000X-0.200000X0.275000X0*%
%TD*%
%TA.AperFunction,ComponentPad*%
%ADD19C,1.600000*%
%TD*%
%TA.AperFunction,ComponentPad*%
%ADD20C,6.000000*%
%TD*%
%TA.AperFunction,SMDPad,CuDef*%
%ADD21RoundRect,0.250000X-0.362500X-1.075000X0.362500X-1.075000X0.362500X1.075000X-0.362500X1.075000X0*%
%TD*%
%TA.AperFunction,SMDPad,CuDef*%
%ADD22RoundRect,0.250000X-1.075000X-0.550000X1.075000X-0.550000X1.075000X0.550000X-1.075000X0.550000X0*%
%TD*%
%TA.AperFunction,ComponentPad*%
%ADD23RoundRect,0.250000X-0.550000X-0.550000X0.550000X-0.550000X0.550000X0.550000X-0.550000X0.550000X0*%
%TD*%
%TA.AperFunction,ViaPad*%
%ADD24C,0.600000*%
%TD*%
%TA.AperFunction,Conductor*%
%ADD25C,0.200000*%
%TD*%
G04 APERTURE END LIST*
D10*
%TO.P,J3,1,Pin_1*%
%TO.N,GND*%
X181090000Y-95320000D03*
D11*
%TO.P,J3,2,Pin_2*%
%TO.N,Net-(J3-Pin_2)*%
X181090000Y-100400000D03*
%TD*%
D12*
%TO.P,J4,1,Pin_1*%
%TO.N,Net-(D1-A)*%
X183310000Y-107030000D03*
D13*
%TO.P,J4,2,Pin_2*%
%TO.N,GND*%
X185310000Y-107030000D03*
%TD*%
D14*
%TO.P,J1,1,Pin_1*%
%TO.N,Net-(J1-Pin_1)*%
X118815000Y-103562500D03*
D11*
%TO.P,J1,2,Pin_2*%
%TO.N,GND1*%
X123895000Y-103562500D03*
%TD*%
D15*
%TO.P,D1,1,K*%
%TO.N,Net-(D1-K)*%
X144050000Y-102600000D03*
%TO.P,D1,2,A*%
%TO.N,Net-(D1-A)*%
X144750000Y-102600000D03*
%TD*%
D16*
%TO.P,Q2,1,D*%
%TO.N,Net-(J3-Pin_2)*%
X171680000Y-91090000D03*
D17*
%TO.P,Q2,2,G*%
%TO.N,Net-(D1-A)*%
X171680000Y-89820000D03*
%TO.P,Q2,3,S*%
%TO.N,GND*%
X171680000Y-88550000D03*
%TD*%
D18*
%TO.P,R1,1*%
%TO.N,Net-(D1-K)*%
X143430000Y-97950000D03*
%TO.P,R1,2*%
%TO.N,Net-(D1-A)*%
X145080000Y-97950000D03*
%TD*%
D16*
%TO.P,Q1,1,D*%
%TO.N,Net-(J3-Pin_2)*%
X152030000Y-91090000D03*
D17*
%TO.P,Q1,2,G*%
%TO.N,Net-(D1-A)*%
X152030000Y-89820000D03*
%TO.P,Q1,3,S*%
%TO.N,GND*%
X152030000Y-88550000D03*
%TD*%
D19*
%TO.P,R3,1*%
%TO.N,GND*%
X139350000Y-81910000D03*
%TO.P,R3,2*%
%TO.N,Net-(D1-A)*%
X149510000Y-81910000D03*
%TD*%
D10*
%TO.P,J2,1,Pin_1*%
%TO.N,Net-(J2-Pin_1)*%
X181090000Y-80410000D03*
D11*
%TO.P,J2,2,Pin_2*%
%TO.N,GND*%
X181090000Y-85490000D03*
%TD*%
D20*
%TO.P,HS1,1*%
%TO.N,N/C*%
X161390000Y-101060000D03*
X161390000Y-75660000D03*
%TD*%
D21*
%TO.P,R2,1*%
%TO.N,Net-(J1-Pin_1)*%
X118797500Y-87650000D03*
%TO.P,R2,2*%
%TO.N,Net-(R2-Pad2)*%
X123422500Y-87650000D03*
%TD*%
D22*
%TO.P,C1,1*%
%TO.N,Net-(J2-Pin_1)*%
X138935000Y-75160000D03*
%TO.P,C1,2*%
%TO.N,GND*%
X142285000Y-75160000D03*
%TD*%
D23*
%TO.P,U1,1*%
%TO.N,Net-(R2-Pad2)*%
X128415000Y-87685000D03*
D19*
%TO.P,U1,2*%
%TO.N,GND1*%
X128415000Y-90225000D03*
%TO.P,U1,3*%
%TO.N,unconnected-(U1-Pad3)*%
X128415000Y-92765000D03*
%TO.P,U1,4*%
%TO.N,GND*%
X136035000Y-92765000D03*
%TO.P,U1,5*%
%TO.N,Net-(D1-K)*%
X136035000Y-90225000D03*
%TO.P,U1,6*%
%TO.N,Net-(J2-Pin_1)*%
X136035000Y-87685000D03*
%TD*%
D24*
%TO.N,GND*%
X138100000Y-94760000D03*
X150460000Y-86480000D03*
X144780000Y-76960000D03*
X179310000Y-89050000D03*
X137210000Y-82543333D03*
X138100000Y-93603333D03*
X137210000Y-80230000D03*
X144780000Y-75803333D03*
X137210000Y-83700000D03*
X139500000Y-93643333D03*
X171720000Y-86300000D03*
X174430000Y-88540000D03*
X139500000Y-91330000D03*
X151616667Y-86480000D03*
X139500000Y-94800000D03*
X180436667Y-91490000D03*
X152773333Y-86480000D03*
X168480000Y-88540000D03*
X182750000Y-91490000D03*
X137210000Y-81386667D03*
X139500000Y-92486667D03*
X179280000Y-91490000D03*
X181593333Y-91490000D03*
X180466667Y-89050000D03*
X144780000Y-73490000D03*
X153930000Y-86480000D03*
X144780000Y-74646667D03*
X181623333Y-89050000D03*
X138100000Y-91290000D03*
X182780000Y-89050000D03*
X138100000Y-92446667D03*
%TO.N,GND1*%
X126280000Y-93220000D03*
X129570000Y-98180000D03*
X126280000Y-90313333D03*
X126280000Y-88860000D03*
X129570000Y-99592857D03*
X129570000Y-108070000D03*
X129570000Y-102418571D03*
X129570000Y-106657143D03*
X126280000Y-91766667D03*
X129570000Y-101005714D03*
X129570000Y-103831429D03*
X129570000Y-105244286D03*
%TD*%
D25*
%TO.N,Net-(J2-Pin_1)*%
X136035000Y-78060000D02*
X136035000Y-87685000D01*
X138935000Y-75160000D02*
X138935000Y-77715000D01*
X138935000Y-75160000D02*
X136035000Y-78060000D01*
X140440000Y-79220000D02*
X179900000Y-79220000D01*
X179900000Y-79220000D02*
X181090000Y-80410000D01*
X138935000Y-77715000D02*
X140440000Y-79220000D01*
%TO.N,Net-(D1-K)*%
X143430000Y-97950000D02*
X143430000Y-101980000D01*
X143430000Y-101980000D02*
X144050000Y-102600000D01*
X143430000Y-97950000D02*
X143430000Y-92300000D01*
X141410000Y-90280000D02*
X136090000Y-90280000D01*
X136090000Y-90280000D02*
X136035000Y-90225000D01*
X143430000Y-92300000D02*
X141410000Y-90280000D01*
%TO.N,Net-(D1-A)*%
X168530000Y-91540000D02*
X170250000Y-89820000D01*
X151330000Y-89820000D02*
X152030000Y-89820000D01*
X149520000Y-81920000D02*
X149520000Y-88010000D01*
X145080000Y-102270000D02*
X144750000Y-102600000D01*
X150300000Y-89820000D02*
X152030000Y-89820000D01*
X168530000Y-104490000D02*
X168530000Y-91540000D01*
X152030000Y-89820000D02*
X166810000Y-89820000D01*
X145080000Y-97950000D02*
X145080000Y-95040000D01*
X149520000Y-88010000D02*
X151330000Y-89820000D01*
X149510000Y-81910000D02*
X149520000Y-81920000D01*
X166810000Y-89820000D02*
X168530000Y-91540000D01*
X171070000Y-107030000D02*
X168530000Y-104490000D01*
X145080000Y-95040000D02*
X150300000Y-89820000D01*
X145080000Y-97950000D02*
X145080000Y-102270000D01*
X183310000Y-107030000D02*
X171070000Y-107030000D01*
X170250000Y-89820000D02*
X171680000Y-89820000D01*
%TO.N,Net-(J1-Pin_1)*%
X118797500Y-87650000D02*
X118797500Y-103545000D01*
X118797500Y-103545000D02*
X118815000Y-103562500D01*
%TO.N,Net-(J3-Pin_2)*%
X181090000Y-100400000D02*
X180990000Y-100400000D01*
X180990000Y-100400000D02*
X171680000Y-91090000D01*
%TO.N,Net-(R2-Pad2)*%
X128415000Y-87685000D02*
X123457500Y-87685000D01*
X123457500Y-87685000D02*
X123422500Y-87650000D01*
%TD*%
%TA.AperFunction,Conductor*%
%TO.N,GND1*%
G36*
X130943856Y-70600185D02*
G01*
X130989611Y-70652989D01*
X131000817Y-70704338D01*
X131020000Y-85360000D01*
X131012665Y-94033477D01*
X131000536Y-108375605D01*
X130980795Y-108442628D01*
X130927952Y-108488338D01*
X130876536Y-108499500D01*
X116094500Y-108499500D01*
X116027461Y-108479815D01*
X115981706Y-108427011D01*
X115970500Y-108375500D01*
X115970500Y-102462483D01*
X117014500Y-102462483D01*
X117014500Y-104662501D01*
X117014501Y-104662518D01*
X117025000Y-104765296D01*
X117025001Y-104765299D01*
X117073885Y-104912819D01*
X117080186Y-104931834D01*
X117172288Y-105081156D01*
X117296344Y-105205212D01*
X117445666Y-105297314D01*
X117612203Y-105352499D01*
X117714991Y-105363000D01*
X119915008Y-105362999D01*
X120017797Y-105352499D01*
X120184334Y-105297314D01*
X120333656Y-105205212D01*
X120457712Y-105081156D01*
X120549814Y-104931834D01*
X120604999Y-104765297D01*
X120615500Y-104662509D01*
X120615499Y-103444514D01*
X122095000Y-103444514D01*
X122095000Y-103680485D01*
X122125799Y-103914414D01*
X122186870Y-104142337D01*
X122277160Y-104360319D01*
X122277165Y-104360328D01*
X122395144Y-104564671D01*
X122395145Y-104564672D01*
X122457721Y-104646223D01*
X123293958Y-103809987D01*
X123318978Y-103870390D01*
X123390112Y-103976851D01*
X123480649Y-104067388D01*
X123587110Y-104138522D01*
X123647511Y-104163541D01*
X122811275Y-104999777D01*
X122892827Y-105062354D01*
X122892828Y-105062355D01*
X123097171Y-105180334D01*
X123097180Y-105180339D01*
X123315163Y-105270629D01*
X123315161Y-105270629D01*
X123543085Y-105331700D01*
X123777014Y-105362499D01*
X123777029Y-105362500D01*
X124012971Y-105362500D01*
X124012985Y-105362499D01*
X124246914Y-105331700D01*
X124474837Y-105270629D01*
X124692819Y-105180339D01*
X124692828Y-105180334D01*
X124897181Y-105062350D01*
X124978723Y-104999779D01*
X124978723Y-104999776D01*
X124142487Y-104163541D01*
X124202890Y-104138522D01*
X124309351Y-104067388D01*
X124399888Y-103976851D01*
X124471022Y-103870390D01*
X124496041Y-103809988D01*
X125332276Y-104646223D01*
X125332279Y-104646223D01*
X125394850Y-104564681D01*
X125512834Y-104360328D01*
X125512839Y-104360319D01*
X125603129Y-104142337D01*
X125664200Y-103914414D01*
X125694999Y-103680485D01*
X125695000Y-103680471D01*
X125695000Y-103444528D01*
X125694999Y-103444514D01*
X125664200Y-103210585D01*
X125603129Y-102982662D01*
X125512839Y-102764680D01*
X125512834Y-102764671D01*
X125394855Y-102560328D01*
X125394854Y-102560327D01*
X125332277Y-102478775D01*
X124496041Y-103315011D01*
X124471022Y-103254610D01*
X124399888Y-103148149D01*
X124309351Y-103057612D01*
X124202890Y-102986478D01*
X124142488Y-102961458D01*
X124978723Y-102125221D01*
X124897172Y-102062645D01*
X124897171Y-102062644D01*
X124692828Y-101944665D01*
X124692819Y-101944660D01*
X124474836Y-101854370D01*
X124474838Y-101854370D01*
X124246914Y-101793299D01*
X124012985Y-101762500D01*
X123777014Y-101762500D01*
X123543085Y-101793299D01*
X123315162Y-101854370D01*
X123097180Y-101944660D01*
X123097171Y-101944665D01*
X122892828Y-102062644D01*
X122892818Y-102062650D01*
X122811275Y-102125220D01*
X122811275Y-102125221D01*
X123647512Y-102961458D01*
X123587110Y-102986478D01*
X123480649Y-103057612D01*
X123390112Y-103148149D01*
X123318978Y-103254610D01*
X123293958Y-103315012D01*
X122457721Y-102478775D01*
X122457720Y-102478775D01*
X122395150Y-102560318D01*
X122395144Y-102560328D01*
X122277165Y-102764671D01*
X122277160Y-102764680D01*
X122186870Y-102982662D01*
X122125799Y-103210585D01*
X122095000Y-103444514D01*
X120615499Y-103444514D01*
X120615499Y-102462492D01*
X120604999Y-102359703D01*
X120549814Y-102193166D01*
X120457712Y-102043844D01*
X120333656Y-101919788D01*
X120184334Y-101827686D01*
X120017797Y-101772501D01*
X120017795Y-101772500D01*
X119915016Y-101762000D01*
X119915009Y-101762000D01*
X119522000Y-101762000D01*
X119454961Y-101742315D01*
X119409206Y-101689511D01*
X119398000Y-101638000D01*
X119398000Y-89526307D01*
X119417685Y-89459268D01*
X119470489Y-89413513D01*
X119476281Y-89411238D01*
X119479328Y-89409817D01*
X119479331Y-89409814D01*
X119479334Y-89409814D01*
X119628656Y-89317712D01*
X119752712Y-89193656D01*
X119844814Y-89044334D01*
X119899999Y-88877797D01*
X119910500Y-88775009D01*
X119910499Y-86524992D01*
X119910498Y-86524983D01*
X122309500Y-86524983D01*
X122309500Y-88775001D01*
X122309501Y-88775018D01*
X122320000Y-88877796D01*
X122320001Y-88877799D01*
X122375185Y-89044331D01*
X122375187Y-89044336D01*
X122410069Y-89100888D01*
X122467288Y-89193656D01*
X122591344Y-89317712D01*
X122740666Y-89409814D01*
X122907203Y-89464999D01*
X123009991Y-89475500D01*
X123835008Y-89475499D01*
X123835016Y-89475498D01*
X123835019Y-89475498D01*
X123891302Y-89469748D01*
X123937797Y-89464999D01*
X124104334Y-89409814D01*
X124253656Y-89317712D01*
X124377712Y-89193656D01*
X124469814Y-89044334D01*
X124524999Y-88877797D01*
X124535500Y-88775009D01*
X124535500Y-88409500D01*
X124555185Y-88342461D01*
X124607989Y-88296706D01*
X124659500Y-88285500D01*
X127002837Y-88285500D01*
X127069876Y-88305185D01*
X127115631Y-88357989D01*
X127124089Y-88383541D01*
X127124999Y-88387792D01*
X127180185Y-88554331D01*
X127180186Y-88554334D01*
X127272288Y-88703656D01*
X127396344Y-88827712D01*
X127545666Y-88919814D01*
X127628152Y-88947147D01*
X127685597Y-88986920D01*
X127712420Y-89051436D01*
X127700105Y-89120212D01*
X127690143Y-89131975D01*
X127689077Y-89145524D01*
X128368554Y-89825000D01*
X128362339Y-89825000D01*
X128260606Y-89852259D01*
X128169394Y-89904920D01*
X128094920Y-89979394D01*
X128042259Y-90070606D01*
X128015000Y-90172339D01*
X128015000Y-90178553D01*
X127335524Y-89499077D01*
X127335523Y-89499077D01*
X127303143Y-89543644D01*
X127210244Y-89725968D01*
X127147009Y-89920582D01*
X127115000Y-90122682D01*
X127115000Y-90327317D01*
X127147009Y-90529417D01*
X127210244Y-90724031D01*
X127303141Y-90906350D01*
X127303147Y-90906359D01*
X127335523Y-90950921D01*
X127335524Y-90950922D01*
X128015000Y-90271446D01*
X128015000Y-90277661D01*
X128042259Y-90379394D01*
X128094920Y-90470606D01*
X128169394Y-90545080D01*
X128260606Y-90597741D01*
X128362339Y-90625000D01*
X128368553Y-90625000D01*
X127689076Y-91304474D01*
X127733652Y-91336861D01*
X127826628Y-91384234D01*
X127877425Y-91432208D01*
X127894220Y-91500029D01*
X127871683Y-91566164D01*
X127826630Y-91605203D01*
X127733388Y-91652713D01*
X127567786Y-91773028D01*
X127423028Y-91917786D01*
X127302715Y-92083386D01*
X127209781Y-92265776D01*
X127146522Y-92460465D01*
X127114500Y-92662648D01*
X127114500Y-92867351D01*
X127146522Y-93069534D01*
X127209781Y-93264223D01*
X127302715Y-93446613D01*
X127423028Y-93612213D01*
X127567786Y-93756971D01*
X127722749Y-93869556D01*
X127733390Y-93877287D01*
X127849607Y-93936503D01*
X127915776Y-93970218D01*
X127915778Y-93970218D01*
X127915781Y-93970220D01*
X128020137Y-94004127D01*
X128110465Y-94033477D01*
X128211557Y-94049488D01*
X128312648Y-94065500D01*
X128312649Y-94065500D01*
X128517351Y-94065500D01*
X128517352Y-94065500D01*
X128719534Y-94033477D01*
X128914219Y-93970220D01*
X129096610Y-93877287D01*
X129189590Y-93809732D01*
X129262213Y-93756971D01*
X129262215Y-93756968D01*
X129262219Y-93756966D01*
X129406966Y-93612219D01*
X129406968Y-93612215D01*
X129406971Y-93612213D01*
X129459732Y-93539590D01*
X129527287Y-93446610D01*
X129620220Y-93264219D01*
X129683477Y-93069534D01*
X129715500Y-92867352D01*
X129715500Y-92662648D01*
X129683477Y-92460466D01*
X129620220Y-92265781D01*
X129620218Y-92265778D01*
X129620218Y-92265776D01*
X129586503Y-92199607D01*
X129527287Y-92083390D01*
X129519556Y-92072749D01*
X129406971Y-91917786D01*
X129262213Y-91773028D01*
X129096611Y-91652713D01*
X129003369Y-91605203D01*
X128952574Y-91557229D01*
X128935779Y-91489407D01*
X128958317Y-91423273D01*
X129003371Y-91384234D01*
X129096346Y-91336861D01*
X129096347Y-91336861D01*
X129140921Y-91304474D01*
X128461447Y-90625000D01*
X128467661Y-90625000D01*
X128569394Y-90597741D01*
X128660606Y-90545080D01*
X128735080Y-90470606D01*
X128787741Y-90379394D01*
X128815000Y-90277661D01*
X128815000Y-90271447D01*
X129494474Y-90950921D01*
X129526859Y-90906349D01*
X129619755Y-90724031D01*
X129682990Y-90529417D01*
X129715000Y-90327317D01*
X129715000Y-90122682D01*
X129682990Y-89920582D01*
X129619755Y-89725968D01*
X129526859Y-89543650D01*
X129494474Y-89499077D01*
X129494474Y-89499076D01*
X128815000Y-90178551D01*
X128815000Y-90172339D01*
X128787741Y-90070606D01*
X128735080Y-89979394D01*
X128660606Y-89904920D01*
X128569394Y-89852259D01*
X128467661Y-89825000D01*
X128461446Y-89825000D01*
X129140922Y-89145524D01*
X129139570Y-89128349D01*
X129125299Y-89109842D01*
X129119320Y-89040229D01*
X129151925Y-88978433D01*
X129201845Y-88947148D01*
X129284334Y-88919814D01*
X129433656Y-88827712D01*
X129557712Y-88703656D01*
X129649814Y-88554334D01*
X129704999Y-88387797D01*
X129715500Y-88285009D01*
X129715499Y-87084992D01*
X129704999Y-86982203D01*
X129649814Y-86815666D01*
X129557712Y-86666344D01*
X129433656Y-86542288D01*
X129284334Y-86450186D01*
X129117797Y-86395001D01*
X129117795Y-86395000D01*
X129015010Y-86384500D01*
X127814998Y-86384500D01*
X127814981Y-86384501D01*
X127712203Y-86395000D01*
X127712200Y-86395001D01*
X127545668Y-86450185D01*
X127545663Y-86450187D01*
X127396342Y-86542289D01*
X127272289Y-86666342D01*
X127180187Y-86815663D01*
X127180185Y-86815668D01*
X127125000Y-86982204D01*
X127124088Y-86986467D01*
X127090801Y-87047898D01*
X127029586Y-87081581D01*
X127002837Y-87084500D01*
X124659499Y-87084500D01*
X124592460Y-87064815D01*
X124546705Y-87012011D01*
X124535499Y-86960500D01*
X124535499Y-86524998D01*
X124535498Y-86524981D01*
X124524999Y-86422203D01*
X124524998Y-86422200D01*
X124512505Y-86384500D01*
X124469814Y-86255666D01*
X124377712Y-86106344D01*
X124253656Y-85982288D01*
X124104334Y-85890186D01*
X123937797Y-85835001D01*
X123937795Y-85835000D01*
X123835010Y-85824500D01*
X123009998Y-85824500D01*
X123009980Y-85824501D01*
X122907203Y-85835000D01*
X122907200Y-85835001D01*
X122740668Y-85890185D01*
X122740663Y-85890187D01*
X122591342Y-85982289D01*
X122467289Y-86106342D01*
X122375187Y-86255663D01*
X122375186Y-86255666D01*
X122320001Y-86422203D01*
X122320001Y-86422204D01*
X122320000Y-86422204D01*
X122309500Y-86524983D01*
X119910498Y-86524983D01*
X119902857Y-86450186D01*
X119899999Y-86422203D01*
X119899998Y-86422200D01*
X119887505Y-86384500D01*
X119844814Y-86255666D01*
X119752712Y-86106344D01*
X119628656Y-85982288D01*
X119479334Y-85890186D01*
X119312797Y-85835001D01*
X119312795Y-85835000D01*
X119210010Y-85824500D01*
X118384998Y-85824500D01*
X118384980Y-85824501D01*
X118282203Y-85835000D01*
X118282200Y-85835001D01*
X118115668Y-85890185D01*
X118115663Y-85890187D01*
X117966342Y-85982289D01*
X117842289Y-86106342D01*
X117750187Y-86255663D01*
X117750186Y-86255666D01*
X117695001Y-86422203D01*
X117695001Y-86422204D01*
X117695000Y-86422204D01*
X117684500Y-86524983D01*
X117684500Y-88775001D01*
X117684501Y-88775018D01*
X117695000Y-88877796D01*
X117695001Y-88877799D01*
X117750185Y-89044331D01*
X117750187Y-89044336D01*
X117785069Y-89100888D01*
X117842288Y-89193656D01*
X117966344Y-89317712D01*
X118115663Y-89409812D01*
X118115671Y-89409817D01*
X118122216Y-89412869D01*
X118121228Y-89414987D01*
X118169448Y-89448372D01*
X118196272Y-89512887D01*
X118197000Y-89526307D01*
X118197000Y-101638000D01*
X118177315Y-101705039D01*
X118124511Y-101750794D01*
X118073000Y-101762000D01*
X117714998Y-101762000D01*
X117714980Y-101762001D01*
X117612203Y-101772500D01*
X117612200Y-101772501D01*
X117445668Y-101827685D01*
X117445663Y-101827687D01*
X117296342Y-101919789D01*
X117172289Y-102043842D01*
X117080187Y-102193163D01*
X117080185Y-102193168D01*
X117073886Y-102212178D01*
X117025001Y-102359703D01*
X117025001Y-102359704D01*
X117025000Y-102359704D01*
X117014500Y-102462483D01*
X115970500Y-102462483D01*
X115970500Y-70704500D01*
X115990185Y-70637461D01*
X116042989Y-70591706D01*
X116094500Y-70580500D01*
X130876817Y-70580500D01*
X130943856Y-70600185D01*
G37*
%TD.AperFunction*%
%TD*%
%TA.AperFunction,Conductor*%
%TO.N,GND*%
G36*
X186572539Y-70600185D02*
G01*
X186618294Y-70652989D01*
X186629500Y-70704500D01*
X186629500Y-106515007D01*
X186609815Y-106582046D01*
X186557011Y-106627801D01*
X186487853Y-106637745D01*
X186424297Y-106608720D01*
X186395015Y-106571302D01*
X186314949Y-106414165D01*
X186299983Y-106393568D01*
X185710000Y-106983551D01*
X185710000Y-106977339D01*
X185682741Y-106875606D01*
X185630080Y-106784394D01*
X185555606Y-106709920D01*
X185464394Y-106657259D01*
X185362661Y-106630000D01*
X185356446Y-106630000D01*
X185946430Y-106040015D01*
X185925834Y-106025050D01*
X185761043Y-105941084D01*
X185761040Y-105941083D01*
X185585147Y-105883933D01*
X185402473Y-105855000D01*
X185217527Y-105855000D01*
X185034852Y-105883933D01*
X184858959Y-105941083D01*
X184858956Y-105941084D01*
X184694163Y-106025051D01*
X184578690Y-106108946D01*
X184512884Y-106132425D01*
X184444830Y-106116599D01*
X184406540Y-106082938D01*
X184342547Y-105997455D01*
X184342544Y-105997452D01*
X184227335Y-105911206D01*
X184227328Y-105911202D01*
X184092482Y-105860908D01*
X184092483Y-105860908D01*
X184032883Y-105854501D01*
X184032881Y-105854500D01*
X184032873Y-105854500D01*
X184032864Y-105854500D01*
X182587129Y-105854500D01*
X182587123Y-105854501D01*
X182527516Y-105860908D01*
X182392671Y-105911202D01*
X182392664Y-105911206D01*
X182277455Y-105997452D01*
X182277452Y-105997455D01*
X182191206Y-106112664D01*
X182191202Y-106112671D01*
X182140908Y-106247517D01*
X182134501Y-106307116D01*
X182134322Y-106310452D01*
X182133065Y-106310384D01*
X182114815Y-106372539D01*
X182062011Y-106418294D01*
X182010500Y-106429500D01*
X171370097Y-106429500D01*
X171303058Y-106409815D01*
X171282416Y-106393181D01*
X169166819Y-104277584D01*
X169133334Y-104216261D01*
X169130500Y-104189903D01*
X169130500Y-91840096D01*
X169150185Y-91773057D01*
X169166814Y-91752420D01*
X170217821Y-90701412D01*
X170279142Y-90667929D01*
X170348834Y-90672913D01*
X170404767Y-90714785D01*
X170429184Y-90780249D01*
X170429500Y-90789095D01*
X170429500Y-91662870D01*
X170429501Y-91662876D01*
X170435908Y-91722483D01*
X170486202Y-91857328D01*
X170486206Y-91857335D01*
X170572452Y-91972544D01*
X170572455Y-91972547D01*
X170687664Y-92058793D01*
X170687671Y-92058797D01*
X170822517Y-92109091D01*
X170822516Y-92109091D01*
X170829444Y-92109835D01*
X170882127Y-92115500D01*
X171804902Y-92115499D01*
X171871941Y-92135183D01*
X171892583Y-92151818D01*
X179375345Y-99634580D01*
X179408830Y-99695903D01*
X179403846Y-99765595D01*
X179402226Y-99769712D01*
X179381397Y-99819998D01*
X179381395Y-99820004D01*
X179320306Y-100047989D01*
X179289501Y-100281979D01*
X179289500Y-100281995D01*
X179289500Y-100518004D01*
X179289501Y-100518020D01*
X179320306Y-100752010D01*
X179381394Y-100979993D01*
X179471714Y-101198045D01*
X179471719Y-101198056D01*
X179542677Y-101320957D01*
X179589727Y-101402450D01*
X179589729Y-101402453D01*
X179589730Y-101402454D01*
X179733406Y-101589697D01*
X179733412Y-101589704D01*
X179900295Y-101756587D01*
X179900302Y-101756593D01*
X179907379Y-101762023D01*
X180087550Y-101900273D01*
X180218918Y-101976118D01*
X180291943Y-102018280D01*
X180291948Y-102018282D01*
X180291951Y-102018284D01*
X180510007Y-102108606D01*
X180737986Y-102169693D01*
X180971989Y-102200500D01*
X180971996Y-102200500D01*
X181208004Y-102200500D01*
X181208011Y-102200500D01*
X181442014Y-102169693D01*
X181669993Y-102108606D01*
X181888049Y-102018284D01*
X182092450Y-101900273D01*
X182279699Y-101756592D01*
X182446592Y-101589699D01*
X182590273Y-101402450D01*
X182708284Y-101198049D01*
X182798606Y-100979993D01*
X182859693Y-100752014D01*
X182890500Y-100518011D01*
X182890500Y-100281989D01*
X182859693Y-100047986D01*
X182798606Y-99820007D01*
X182708284Y-99601951D01*
X182708282Y-99601948D01*
X182708280Y-99601943D01*
X182666118Y-99528918D01*
X182590273Y-99397550D01*
X182446592Y-99210301D01*
X182446587Y-99210295D01*
X182279704Y-99043412D01*
X182279697Y-99043406D01*
X182092454Y-98899730D01*
X182092453Y-98899729D01*
X182092450Y-98899727D01*
X181989277Y-98840160D01*
X181888056Y-98781719D01*
X181888045Y-98781714D01*
X181669993Y-98691394D01*
X181442014Y-98630307D01*
X181442013Y-98630306D01*
X181442010Y-98630306D01*
X181208020Y-98599501D01*
X181208017Y-98599500D01*
X181208011Y-98599500D01*
X180971989Y-98599500D01*
X180971983Y-98599500D01*
X180971979Y-98599501D01*
X180737989Y-98630306D01*
X180510003Y-98691395D01*
X180318292Y-98770804D01*
X180248823Y-98778273D01*
X180186344Y-98746998D01*
X180183159Y-98743924D01*
X175659248Y-94220013D01*
X179290000Y-94220013D01*
X179290000Y-95070000D01*
X180489999Y-95070000D01*
X180464979Y-95130402D01*
X180440000Y-95255981D01*
X180440000Y-95384019D01*
X180464979Y-95509598D01*
X180489999Y-95570000D01*
X179290001Y-95570000D01*
X179290001Y-96419986D01*
X179300494Y-96522697D01*
X179355641Y-96689119D01*
X179355643Y-96689124D01*
X179447684Y-96838345D01*
X179571654Y-96962315D01*
X179720875Y-97054356D01*
X179720880Y-97054358D01*
X179887302Y-97109505D01*
X179887309Y-97109506D01*
X179990019Y-97119999D01*
X180839999Y-97119999D01*
X180840000Y-97119998D01*
X180840000Y-95920001D01*
X180900402Y-95945021D01*
X181025981Y-95970000D01*
X181154019Y-95970000D01*
X181279598Y-95945021D01*
X181340000Y-95920001D01*
X181340000Y-97119999D01*
X182189972Y-97119999D01*
X182189986Y-97119998D01*
X182292697Y-97109505D01*
X182459119Y-97054358D01*
X182459124Y-97054356D01*
X182608345Y-96962315D01*
X182732315Y-96838345D01*
X182824356Y-96689124D01*
X182824358Y-96689119D01*
X182879505Y-96522697D01*
X182879506Y-96522690D01*
X182889999Y-96419986D01*
X182890000Y-96419973D01*
X182890000Y-95570000D01*
X181690001Y-95570000D01*
X181715021Y-95509598D01*
X181740000Y-95384019D01*
X181740000Y-95255981D01*
X181715021Y-95130402D01*
X181690001Y-95070000D01*
X182889999Y-95070000D01*
X182889999Y-94220028D01*
X182889998Y-94220013D01*
X182879505Y-94117302D01*
X182824358Y-93950880D01*
X182824356Y-93950875D01*
X182732315Y-93801654D01*
X182608345Y-93677684D01*
X182459124Y-93585643D01*
X182459119Y-93585641D01*
X182292697Y-93530494D01*
X182292690Y-93530493D01*
X182189986Y-93520000D01*
X181340000Y-93520000D01*
X181340000Y-94719998D01*
X181279598Y-94694979D01*
X181154019Y-94670000D01*
X181025981Y-94670000D01*
X180900402Y-94694979D01*
X180840000Y-94719998D01*
X180840000Y-93520000D01*
X179990028Y-93520000D01*
X179990012Y-93520001D01*
X179887302Y-93530494D01*
X179720880Y-93585641D01*
X179720875Y-93585643D01*
X179571654Y-93677684D01*
X179447684Y-93801654D01*
X179355643Y-93950875D01*
X179355641Y-93950880D01*
X179300494Y-94117302D01*
X179300493Y-94117309D01*
X179290000Y-94220013D01*
X175659248Y-94220013D01*
X172966818Y-91527583D01*
X172933333Y-91466260D01*
X172930499Y-91439902D01*
X172930499Y-90517129D01*
X172930498Y-90517123D01*
X172927199Y-90486435D01*
X172924091Y-90457517D01*
X172918346Y-90442115D01*
X172873797Y-90322671D01*
X172873796Y-90322670D01*
X172873796Y-90322669D01*
X172872967Y-90321562D01*
X172872485Y-90320268D01*
X172869546Y-90314886D01*
X172870319Y-90314463D01*
X172848551Y-90256099D01*
X172857675Y-90199798D01*
X172891089Y-90119132D01*
X172891089Y-90119131D01*
X172891091Y-90119127D01*
X172930500Y-89921003D01*
X172930500Y-89718997D01*
X172891091Y-89520873D01*
X172813786Y-89334244D01*
X172759794Y-89253439D01*
X172738917Y-89186764D01*
X172757401Y-89119384D01*
X172759796Y-89115658D01*
X172813344Y-89035518D01*
X172813346Y-89035515D01*
X172890609Y-88848983D01*
X172890612Y-88848974D01*
X172900353Y-88800000D01*
X172045866Y-88800000D01*
X172021674Y-88797617D01*
X172006004Y-88794500D01*
X172006003Y-88794500D01*
X171965830Y-88794500D01*
X171980075Y-88780255D01*
X172029444Y-88694745D01*
X172055000Y-88599370D01*
X172055000Y-88500630D01*
X172029444Y-88405255D01*
X171980075Y-88319745D01*
X171960330Y-88300000D01*
X172900353Y-88300000D01*
X172890612Y-88251025D01*
X172890609Y-88251016D01*
X172813347Y-88064486D01*
X172813340Y-88064473D01*
X172701170Y-87896600D01*
X172701167Y-87896596D01*
X172558403Y-87753832D01*
X172558399Y-87753829D01*
X172390526Y-87641659D01*
X172390513Y-87641652D01*
X172203983Y-87564390D01*
X172203974Y-87564387D01*
X172005958Y-87525000D01*
X171930000Y-87525000D01*
X171930000Y-88269670D01*
X171910255Y-88249925D01*
X171824745Y-88200556D01*
X171729370Y-88175000D01*
X171630630Y-88175000D01*
X171535255Y-88200556D01*
X171449745Y-88249925D01*
X171430000Y-88269670D01*
X171430000Y-87525000D01*
X171354041Y-87525000D01*
X171156025Y-87564387D01*
X171156016Y-87564390D01*
X170969486Y-87641652D01*
X170969473Y-87641659D01*
X170801600Y-87753829D01*
X170801596Y-87753832D01*
X170658832Y-87896596D01*
X170658829Y-87896600D01*
X170546659Y-88064473D01*
X170546652Y-88064486D01*
X170469390Y-88251016D01*
X170469387Y-88251025D01*
X170459647Y-88300000D01*
X171399670Y-88300000D01*
X171379925Y-88319745D01*
X171330556Y-88405255D01*
X171305000Y-88500630D01*
X171305000Y-88599370D01*
X171330556Y-88694745D01*
X171379925Y-88780255D01*
X171394170Y-88794500D01*
X171353997Y-88794500D01*
X171353996Y-88794500D01*
X171338326Y-88797617D01*
X171314134Y-88800000D01*
X170459647Y-88800000D01*
X170469387Y-88848974D01*
X170469390Y-88848983D01*
X170546656Y-89035521D01*
X170547475Y-89037054D01*
X170547661Y-89037947D01*
X170548987Y-89041149D01*
X170548379Y-89041400D01*
X170561713Y-89105458D01*
X170536708Y-89170700D01*
X170480400Y-89212067D01*
X170438113Y-89219500D01*
X170170940Y-89219500D01*
X170130019Y-89230464D01*
X170130019Y-89230465D01*
X170120432Y-89233034D01*
X170018214Y-89260423D01*
X170018209Y-89260426D01*
X169881290Y-89339475D01*
X169881282Y-89339481D01*
X169769478Y-89451286D01*
X168617680Y-90603083D01*
X168556357Y-90636568D01*
X168486665Y-90631584D01*
X168442318Y-90603083D01*
X167297590Y-89458355D01*
X167297588Y-89458352D01*
X167178717Y-89339481D01*
X167178716Y-89339480D01*
X167091904Y-89289360D01*
X167091904Y-89289359D01*
X167091900Y-89289358D01*
X167041785Y-89260423D01*
X166889057Y-89219499D01*
X166730943Y-89219499D01*
X166723347Y-89219499D01*
X166723331Y-89219500D01*
X153271886Y-89219500D01*
X153204847Y-89199815D01*
X153159092Y-89147011D01*
X153149148Y-89077853D01*
X153161162Y-89041211D01*
X153161013Y-89041149D01*
X153161830Y-89039175D01*
X153162530Y-89037042D01*
X153163347Y-89035512D01*
X153240609Y-88848983D01*
X153240612Y-88848974D01*
X153250353Y-88800000D01*
X152395866Y-88800000D01*
X152393047Y-88799968D01*
X152382259Y-88799722D01*
X152356003Y-88794500D01*
X152315830Y-88794500D01*
X152330075Y-88780255D01*
X152379444Y-88694745D01*
X152405000Y-88599370D01*
X152405000Y-88500630D01*
X152379444Y-88405255D01*
X152330075Y-88319745D01*
X152310330Y-88300000D01*
X153250353Y-88300000D01*
X153240612Y-88251025D01*
X153240609Y-88251016D01*
X153163347Y-88064486D01*
X153163340Y-88064473D01*
X153051170Y-87896600D01*
X153051167Y-87896596D01*
X152908403Y-87753832D01*
X152908399Y-87753829D01*
X152740526Y-87641659D01*
X152740513Y-87641652D01*
X152553983Y-87564390D01*
X152553974Y-87564387D01*
X152355958Y-87525000D01*
X152280000Y-87525000D01*
X152280000Y-88269670D01*
X152260255Y-88249925D01*
X152174745Y-88200556D01*
X152079370Y-88175000D01*
X151980630Y-88175000D01*
X151885255Y-88200556D01*
X151799745Y-88249925D01*
X151780000Y-88269670D01*
X151780000Y-87525000D01*
X151704041Y-87525000D01*
X151506025Y-87564387D01*
X151506016Y-87564390D01*
X151319486Y-87641652D01*
X151319473Y-87641659D01*
X151151600Y-87753829D01*
X151151596Y-87753832D01*
X151008832Y-87896596D01*
X151008829Y-87896600D01*
X150896659Y-88064473D01*
X150896654Y-88064482D01*
X150829153Y-88227447D01*
X150785312Y-88281850D01*
X150719018Y-88303915D01*
X150651319Y-88286636D01*
X150626911Y-88267675D01*
X150156819Y-87797583D01*
X150123334Y-87736260D01*
X150120500Y-87709902D01*
X150120500Y-85372014D01*
X179290000Y-85372014D01*
X179290000Y-85607985D01*
X179320799Y-85841914D01*
X179381870Y-86069837D01*
X179472160Y-86287819D01*
X179472165Y-86287828D01*
X179590144Y-86492171D01*
X179590145Y-86492172D01*
X179652721Y-86573723D01*
X180488958Y-85737487D01*
X180513978Y-85797890D01*
X180585112Y-85904351D01*
X180675649Y-85994888D01*
X180782110Y-86066022D01*
X180842511Y-86091041D01*
X180006275Y-86927277D01*
X180087827Y-86989854D01*
X180087828Y-86989855D01*
X180292171Y-87107834D01*
X180292180Y-87107839D01*
X180510163Y-87198129D01*
X180510161Y-87198129D01*
X180738085Y-87259200D01*
X180972014Y-87289999D01*
X180972029Y-87290000D01*
X181207971Y-87290000D01*
X181207985Y-87289999D01*
X181441914Y-87259200D01*
X181669837Y-87198129D01*
X181887819Y-87107839D01*
X181887828Y-87107834D01*
X182092181Y-86989850D01*
X182173723Y-86927279D01*
X182173723Y-86927276D01*
X181337487Y-86091041D01*
X181397890Y-86066022D01*
X181504351Y-85994888D01*
X181594888Y-85904351D01*
X181666022Y-85797890D01*
X181691041Y-85737488D01*
X182527276Y-86573723D01*
X182527279Y-86573723D01*
X182589850Y-86492181D01*
X182707834Y-86287828D01*
X182707839Y-86287819D01*
X182798129Y-86069837D01*
X182859200Y-85841914D01*
X182889999Y-85607985D01*
X182890000Y-85607971D01*
X182890000Y-85372028D01*
X182889999Y-85372014D01*
X182859200Y-85138085D01*
X182798129Y-84910162D01*
X182707839Y-84692180D01*
X182707834Y-84692171D01*
X182589855Y-84487828D01*
X182589854Y-84487827D01*
X182527277Y-84406275D01*
X181691041Y-85242511D01*
X181666022Y-85182110D01*
X181594888Y-85075649D01*
X181504351Y-84985112D01*
X181397890Y-84913978D01*
X181337488Y-84888958D01*
X182173723Y-84052721D01*
X182092172Y-83990145D01*
X182092171Y-83990144D01*
X181887828Y-83872165D01*
X181887819Y-83872160D01*
X181669836Y-83781870D01*
X181669838Y-83781870D01*
X181441914Y-83720799D01*
X181207985Y-83690000D01*
X180972014Y-83690000D01*
X180738085Y-83720799D01*
X180510162Y-83781870D01*
X180292180Y-83872160D01*
X180292171Y-83872165D01*
X180087828Y-83990144D01*
X180087818Y-83990150D01*
X180006275Y-84052720D01*
X180006275Y-84052721D01*
X180842512Y-84888958D01*
X180782110Y-84913978D01*
X180675649Y-84985112D01*
X180585112Y-85075649D01*
X180513978Y-85182110D01*
X180488958Y-85242511D01*
X179652721Y-84406275D01*
X179652720Y-84406275D01*
X179590150Y-84487818D01*
X179590144Y-84487828D01*
X179472165Y-84692171D01*
X179472160Y-84692180D01*
X179381870Y-84910162D01*
X179320799Y-85138085D01*
X179290000Y-85372014D01*
X150120500Y-85372014D01*
X150120500Y-83134506D01*
X150140185Y-83067467D01*
X150188207Y-83024020D01*
X150191610Y-83022287D01*
X150357219Y-82901966D01*
X150501966Y-82757219D01*
X150501968Y-82757215D01*
X150501971Y-82757213D01*
X150554732Y-82684590D01*
X150622287Y-82591610D01*
X150715220Y-82409219D01*
X150778477Y-82214534D01*
X150810500Y-82012352D01*
X150810500Y-81807648D01*
X150802257Y-81755606D01*
X150778477Y-81605465D01*
X150747458Y-81510000D01*
X150715220Y-81410781D01*
X150715218Y-81410778D01*
X150715218Y-81410776D01*
X150622419Y-81228650D01*
X150622287Y-81228390D01*
X150590092Y-81184077D01*
X150501971Y-81062786D01*
X150357213Y-80918028D01*
X150191613Y-80797715D01*
X150191612Y-80797714D01*
X150191610Y-80797713D01*
X150134653Y-80768691D01*
X150009223Y-80704781D01*
X149814534Y-80641522D01*
X149639995Y-80613878D01*
X149612352Y-80609500D01*
X149407648Y-80609500D01*
X149383329Y-80613351D01*
X149205465Y-80641522D01*
X149010776Y-80704781D01*
X148828386Y-80797715D01*
X148662786Y-80918028D01*
X148518028Y-81062786D01*
X148397715Y-81228386D01*
X148304781Y-81410776D01*
X148241522Y-81605465D01*
X148209500Y-81807648D01*
X148209500Y-82012351D01*
X148241522Y-82214534D01*
X148304781Y-82409223D01*
X148368691Y-82534653D01*
X148397585Y-82591359D01*
X148397715Y-82591613D01*
X148518028Y-82757213D01*
X148518034Y-82757219D01*
X148662781Y-82901966D01*
X148828390Y-83022287D01*
X148851793Y-83034211D01*
X148902589Y-83082183D01*
X148919500Y-83144696D01*
X148919500Y-87923330D01*
X148919499Y-87923348D01*
X148919499Y-88089054D01*
X148919498Y-88089054D01*
X148960424Y-88241789D01*
X148960425Y-88241790D01*
X148985661Y-88285499D01*
X148985662Y-88285501D01*
X149039475Y-88378709D01*
X149039481Y-88378717D01*
X149158349Y-88497585D01*
X149158355Y-88497590D01*
X149878083Y-89217318D01*
X149911568Y-89278641D01*
X149906584Y-89348333D01*
X149878083Y-89392680D01*
X144711286Y-94559478D01*
X144599481Y-94671282D01*
X144599480Y-94671284D01*
X144557511Y-94743978D01*
X144549361Y-94758094D01*
X144549359Y-94758096D01*
X144520425Y-94808209D01*
X144520424Y-94808210D01*
X144520423Y-94808215D01*
X144479499Y-94960943D01*
X144479499Y-94960945D01*
X144479499Y-95129046D01*
X144479500Y-95129059D01*
X144479500Y-97033480D01*
X144470855Y-97062920D01*
X144464332Y-97092907D01*
X144460577Y-97097922D01*
X144459815Y-97100519D01*
X144443181Y-97121161D01*
X144342681Y-97221661D01*
X144281358Y-97255146D01*
X144211666Y-97250162D01*
X144167319Y-97221661D01*
X144066819Y-97121161D01*
X144033334Y-97059838D01*
X144030500Y-97033480D01*
X144030500Y-92220945D01*
X144030500Y-92220943D01*
X143989577Y-92068216D01*
X143934343Y-91972547D01*
X143910524Y-91931290D01*
X143910521Y-91931286D01*
X143910520Y-91931284D01*
X143798716Y-91819480D01*
X143798715Y-91819479D01*
X143794385Y-91815149D01*
X143794374Y-91815139D01*
X141897590Y-89918355D01*
X141897588Y-89918352D01*
X141778717Y-89799481D01*
X141778716Y-89799480D01*
X141677326Y-89740943D01*
X141677325Y-89740942D01*
X141641783Y-89720422D01*
X141585881Y-89705443D01*
X141489057Y-89679499D01*
X141330943Y-89679499D01*
X141323347Y-89679499D01*
X141323331Y-89679500D01*
X137292626Y-89679500D01*
X137225587Y-89659815D01*
X137182141Y-89611795D01*
X137147284Y-89543385D01*
X137026971Y-89377786D01*
X136882213Y-89233028D01*
X136716614Y-89112715D01*
X136702371Y-89105458D01*
X136623917Y-89065483D01*
X136573123Y-89017511D01*
X136556328Y-88949690D01*
X136578865Y-88883555D01*
X136623917Y-88844516D01*
X136716610Y-88797287D01*
X136785313Y-88747372D01*
X136882213Y-88676971D01*
X136882215Y-88676968D01*
X136882219Y-88676966D01*
X137026966Y-88532219D01*
X137026968Y-88532215D01*
X137026971Y-88532213D01*
X137119210Y-88405255D01*
X137147287Y-88366610D01*
X137240220Y-88184219D01*
X137303477Y-87989534D01*
X137335500Y-87787352D01*
X137335500Y-87582648D01*
X137303477Y-87380466D01*
X137240220Y-87185781D01*
X137240218Y-87185778D01*
X137240218Y-87185776D01*
X137206503Y-87119607D01*
X137147287Y-87003390D01*
X137091990Y-86927279D01*
X137026971Y-86837786D01*
X136882213Y-86693028D01*
X136716610Y-86572712D01*
X136703200Y-86565879D01*
X136652406Y-86517903D01*
X136635500Y-86455397D01*
X136635500Y-81807682D01*
X138050000Y-81807682D01*
X138050000Y-82012317D01*
X138082009Y-82214417D01*
X138145244Y-82409031D01*
X138238141Y-82591350D01*
X138238147Y-82591359D01*
X138270523Y-82635921D01*
X138270524Y-82635922D01*
X138950000Y-81956446D01*
X138950000Y-81962661D01*
X138977259Y-82064394D01*
X139029920Y-82155606D01*
X139104394Y-82230080D01*
X139195606Y-82282741D01*
X139297339Y-82310000D01*
X139303553Y-82310000D01*
X138624076Y-82989474D01*
X138668650Y-83021859D01*
X138850968Y-83114755D01*
X139045582Y-83177990D01*
X139247683Y-83210000D01*
X139452317Y-83210000D01*
X139654417Y-83177990D01*
X139849031Y-83114755D01*
X140031349Y-83021859D01*
X140075921Y-82989474D01*
X139396447Y-82310000D01*
X139402661Y-82310000D01*
X139504394Y-82282741D01*
X139595606Y-82230080D01*
X139670080Y-82155606D01*
X139722741Y-82064394D01*
X139750000Y-81962661D01*
X139750000Y-81956447D01*
X140429474Y-82635921D01*
X140461859Y-82591349D01*
X140554755Y-82409031D01*
X140617990Y-82214417D01*
X140650000Y-82012317D01*
X140650000Y-81807682D01*
X140617990Y-81605582D01*
X140554755Y-81410968D01*
X140461859Y-81228650D01*
X140429474Y-81184077D01*
X140429474Y-81184076D01*
X139750000Y-81863551D01*
X139750000Y-81857339D01*
X139722741Y-81755606D01*
X139670080Y-81664394D01*
X139595606Y-81589920D01*
X139504394Y-81537259D01*
X139402661Y-81510000D01*
X139396446Y-81510000D01*
X140075922Y-80830524D01*
X140075921Y-80830523D01*
X140031359Y-80798147D01*
X140031350Y-80798141D01*
X139849031Y-80705244D01*
X139654417Y-80642009D01*
X139452317Y-80610000D01*
X139247683Y-80610000D01*
X139045582Y-80642009D01*
X138850968Y-80705244D01*
X138668644Y-80798143D01*
X138624077Y-80830523D01*
X138624077Y-80830524D01*
X139303554Y-81510000D01*
X139297339Y-81510000D01*
X139195606Y-81537259D01*
X139104394Y-81589920D01*
X139029920Y-81664394D01*
X138977259Y-81755606D01*
X138950000Y-81857339D01*
X138950000Y-81863553D01*
X138270524Y-81184077D01*
X138270523Y-81184077D01*
X138238143Y-81228644D01*
X138145244Y-81410968D01*
X138082009Y-81605582D01*
X138050000Y-81807682D01*
X136635500Y-81807682D01*
X136635500Y-78360097D01*
X136655185Y-78293058D01*
X136671819Y-78272416D01*
X138122819Y-76821416D01*
X138184142Y-76787931D01*
X138253834Y-76792915D01*
X138309767Y-76834787D01*
X138334184Y-76900251D01*
X138334500Y-76909097D01*
X138334500Y-77628330D01*
X138334499Y-77628348D01*
X138334499Y-77794054D01*
X138334498Y-77794054D01*
X138375423Y-77946785D01*
X138404358Y-77996900D01*
X138404359Y-77996904D01*
X138404360Y-77996904D01*
X138454479Y-78083714D01*
X138454481Y-78083717D01*
X138573349Y-78202585D01*
X138573355Y-78202590D01*
X139955139Y-79584374D01*
X139955149Y-79584385D01*
X139959479Y-79588715D01*
X139959480Y-79588716D01*
X140071284Y-79700520D01*
X140071286Y-79700521D01*
X140071290Y-79700524D01*
X140208209Y-79779573D01*
X140208216Y-79779577D01*
X140310583Y-79807006D01*
X140360942Y-79820500D01*
X140360943Y-79820500D01*
X179165500Y-79820500D01*
X179232539Y-79840185D01*
X179278294Y-79892989D01*
X179289500Y-79944500D01*
X179289500Y-81510001D01*
X179289501Y-81510018D01*
X179300000Y-81612796D01*
X179300001Y-81612799D01*
X179347323Y-81755606D01*
X179355186Y-81779334D01*
X179447288Y-81928656D01*
X179571344Y-82052712D01*
X179720666Y-82144814D01*
X179887203Y-82199999D01*
X179989991Y-82210500D01*
X182190008Y-82210499D01*
X182292797Y-82199999D01*
X182459334Y-82144814D01*
X182608656Y-82052712D01*
X182732712Y-81928656D01*
X182824814Y-81779334D01*
X182879999Y-81612797D01*
X182890500Y-81510009D01*
X182890499Y-79309992D01*
X182879999Y-79207203D01*
X182824814Y-79040666D01*
X182732712Y-78891344D01*
X182608656Y-78767288D01*
X182459334Y-78675186D01*
X182292797Y-78620001D01*
X182292795Y-78620000D01*
X182190010Y-78609500D01*
X179989998Y-78609500D01*
X179989981Y-78609501D01*
X179898402Y-78618857D01*
X179885803Y-78619499D01*
X179820943Y-78619499D01*
X179820939Y-78619499D01*
X179813333Y-78619500D01*
X179813332Y-78619499D01*
X179813331Y-78619500D01*
X163648266Y-78619500D01*
X163581227Y-78599815D01*
X163535472Y-78547011D01*
X163525528Y-78477853D01*
X163554553Y-78414297D01*
X163569601Y-78399647D01*
X163617793Y-78360097D01*
X163743627Y-78256828D01*
X163986828Y-78013627D01*
X164205019Y-77747760D01*
X164396100Y-77461787D01*
X164558231Y-77158462D01*
X164689850Y-76840705D01*
X164789690Y-76511578D01*
X164856789Y-76174250D01*
X164890500Y-75831969D01*
X164890500Y-75488031D01*
X164856789Y-75145750D01*
X164789690Y-74808422D01*
X164689850Y-74479295D01*
X164558231Y-74161538D01*
X164519888Y-74089804D01*
X164396106Y-73858224D01*
X164396105Y-73858222D01*
X164396100Y-73858213D01*
X164205019Y-73572240D01*
X163986828Y-73306373D01*
X163986827Y-73306372D01*
X163986823Y-73306367D01*
X163743632Y-73063176D01*
X163477765Y-72844985D01*
X163477764Y-72844984D01*
X163477760Y-72844981D01*
X163191787Y-72653900D01*
X163191782Y-72653897D01*
X163191775Y-72653893D01*
X162888469Y-72491772D01*
X162888464Y-72491770D01*
X162570706Y-72360150D01*
X162241572Y-72260308D01*
X161904248Y-72193210D01*
X161904249Y-72193210D01*
X161646456Y-72167821D01*
X161561969Y-72159500D01*
X161218031Y-72159500D01*
X161139966Y-72167188D01*
X160875750Y-72193210D01*
X160538427Y-72260308D01*
X160209293Y-72360150D01*
X159891535Y-72491770D01*
X159891530Y-72491772D01*
X159588224Y-72653893D01*
X159588206Y-72653904D01*
X159302248Y-72844975D01*
X159302234Y-72844985D01*
X159036367Y-73063176D01*
X158793176Y-73306367D01*
X158574985Y-73572234D01*
X158574975Y-73572248D01*
X158383904Y-73858206D01*
X158383893Y-73858224D01*
X158221772Y-74161530D01*
X158221770Y-74161535D01*
X158090150Y-74479293D01*
X157990308Y-74808427D01*
X157923210Y-75145750D01*
X157897188Y-75409966D01*
X157889500Y-75488031D01*
X157889500Y-75831969D01*
X157899751Y-75936054D01*
X157923210Y-76174249D01*
X157990308Y-76511572D01*
X158090150Y-76840706D01*
X158221770Y-77158464D01*
X158221772Y-77158469D01*
X158383893Y-77461775D01*
X158383897Y-77461782D01*
X158383900Y-77461787D01*
X158574981Y-77747760D01*
X158612976Y-77794057D01*
X158793176Y-78013632D01*
X159036367Y-78256823D01*
X159036372Y-78256827D01*
X159036373Y-78256828D01*
X159080519Y-78293058D01*
X159210399Y-78399647D01*
X159249733Y-78457392D01*
X159251604Y-78527237D01*
X159215417Y-78587005D01*
X159152661Y-78617721D01*
X159131734Y-78619500D01*
X140740097Y-78619500D01*
X140673058Y-78599815D01*
X140652416Y-78583181D01*
X139571819Y-77502584D01*
X139538334Y-77441261D01*
X139535500Y-77414903D01*
X139535500Y-76584499D01*
X139555185Y-76517460D01*
X139607989Y-76471705D01*
X139659500Y-76460499D01*
X140060002Y-76460499D01*
X140060008Y-76460499D01*
X140162797Y-76449999D01*
X140329334Y-76394814D01*
X140478656Y-76302712D01*
X140522673Y-76258694D01*
X140583994Y-76225210D01*
X140653685Y-76230194D01*
X140698034Y-76258695D01*
X140741654Y-76302315D01*
X140890875Y-76394356D01*
X140890880Y-76394358D01*
X141057302Y-76449505D01*
X141057309Y-76449506D01*
X141160019Y-76459999D01*
X142034999Y-76459999D01*
X142535000Y-76459999D01*
X143409972Y-76459999D01*
X143409986Y-76459998D01*
X143512697Y-76449505D01*
X143679119Y-76394358D01*
X143679124Y-76394356D01*
X143828345Y-76302315D01*
X143952315Y-76178345D01*
X144044356Y-76029124D01*
X144044358Y-76029119D01*
X144099505Y-75862697D01*
X144099506Y-75862690D01*
X144109999Y-75759986D01*
X144110000Y-75759973D01*
X144110000Y-75410000D01*
X142535000Y-75410000D01*
X142535000Y-76459999D01*
X142034999Y-76459999D01*
X142035000Y-76459998D01*
X142035000Y-74910000D01*
X142535000Y-74910000D01*
X144109999Y-74910000D01*
X144109999Y-74560028D01*
X144109998Y-74560013D01*
X144099505Y-74457302D01*
X144044358Y-74290880D01*
X144044356Y-74290875D01*
X143952315Y-74141654D01*
X143828345Y-74017684D01*
X143679124Y-73925643D01*
X143679119Y-73925641D01*
X143512697Y-73870494D01*
X143512690Y-73870493D01*
X143409986Y-73860000D01*
X142535000Y-73860000D01*
X142535000Y-74910000D01*
X142035000Y-74910000D01*
X142035000Y-73860000D01*
X141160028Y-73860000D01*
X141160012Y-73860001D01*
X141057302Y-73870494D01*
X140890880Y-73925641D01*
X140890875Y-73925643D01*
X140741654Y-74017684D01*
X140698033Y-74061305D01*
X140636710Y-74094789D01*
X140567018Y-74089804D01*
X140522672Y-74061304D01*
X140478657Y-74017289D01*
X140478656Y-74017288D01*
X140329334Y-73925186D01*
X140162797Y-73870001D01*
X140162795Y-73870000D01*
X140060010Y-73859500D01*
X137809998Y-73859500D01*
X137809981Y-73859501D01*
X137707203Y-73870000D01*
X137707200Y-73870001D01*
X137540668Y-73925185D01*
X137540663Y-73925187D01*
X137391342Y-74017289D01*
X137267289Y-74141342D01*
X137175187Y-74290663D01*
X137175185Y-74290668D01*
X137175115Y-74290880D01*
X137120001Y-74457203D01*
X137120001Y-74457204D01*
X137120000Y-74457204D01*
X137109500Y-74559983D01*
X137109500Y-75760001D01*
X137109501Y-75760018D01*
X137120000Y-75862796D01*
X137120001Y-75862799D01*
X137161393Y-75987710D01*
X137163795Y-76057538D01*
X137131368Y-76114395D01*
X135666286Y-77579478D01*
X135554481Y-77691282D01*
X135554479Y-77691284D01*
X135531561Y-77730980D01*
X135521874Y-77747760D01*
X135475423Y-77828215D01*
X135434499Y-77980943D01*
X135434499Y-77980945D01*
X135434499Y-78149046D01*
X135434500Y-78149059D01*
X135434500Y-86455397D01*
X135414815Y-86522436D01*
X135366800Y-86565879D01*
X135353389Y-86572712D01*
X135187786Y-86693028D01*
X135043028Y-86837786D01*
X134922715Y-87003386D01*
X134829781Y-87185776D01*
X134766522Y-87380465D01*
X134737392Y-87564387D01*
X134734500Y-87582648D01*
X134734500Y-87787352D01*
X134738878Y-87814995D01*
X134766522Y-87989534D01*
X134829781Y-88184223D01*
X134922715Y-88366613D01*
X135043028Y-88532213D01*
X135187786Y-88676971D01*
X135329947Y-88780255D01*
X135353390Y-88797287D01*
X135425265Y-88833909D01*
X135446080Y-88844515D01*
X135496876Y-88892490D01*
X135513671Y-88960311D01*
X135491134Y-89026446D01*
X135446080Y-89065485D01*
X135353386Y-89112715D01*
X135187786Y-89233028D01*
X135043028Y-89377786D01*
X134922715Y-89543386D01*
X134829781Y-89725776D01*
X134766522Y-89920465D01*
X134734500Y-90122648D01*
X134734500Y-90327351D01*
X134766522Y-90529534D01*
X134829781Y-90724223D01*
X134862836Y-90789095D01*
X134919439Y-90900185D01*
X134922715Y-90906613D01*
X135043028Y-91072213D01*
X135187786Y-91216971D01*
X135353385Y-91337284D01*
X135353387Y-91337285D01*
X135353390Y-91337287D01*
X135446630Y-91384795D01*
X135497426Y-91432770D01*
X135514221Y-91500591D01*
X135491684Y-91566725D01*
X135446630Y-91605765D01*
X135353644Y-91653143D01*
X135309077Y-91685523D01*
X135309077Y-91685524D01*
X135988554Y-92365000D01*
X135982339Y-92365000D01*
X135880606Y-92392259D01*
X135789394Y-92444920D01*
X135714920Y-92519394D01*
X135662259Y-92610606D01*
X135635000Y-92712339D01*
X135635000Y-92718553D01*
X134955524Y-92039077D01*
X134955523Y-92039077D01*
X134923143Y-92083644D01*
X134830244Y-92265968D01*
X134767009Y-92460582D01*
X134735000Y-92662682D01*
X134735000Y-92867317D01*
X134767009Y-93069417D01*
X134830244Y-93264031D01*
X134923141Y-93446350D01*
X134923147Y-93446359D01*
X134955523Y-93490921D01*
X134955524Y-93490922D01*
X135635000Y-92811446D01*
X135635000Y-92817661D01*
X135662259Y-92919394D01*
X135714920Y-93010606D01*
X135789394Y-93085080D01*
X135880606Y-93137741D01*
X135982339Y-93165000D01*
X135988553Y-93165000D01*
X135309076Y-93844474D01*
X135353650Y-93876859D01*
X135535968Y-93969755D01*
X135730582Y-94032990D01*
X135932683Y-94065000D01*
X136137317Y-94065000D01*
X136339417Y-94032990D01*
X136534031Y-93969755D01*
X136716349Y-93876859D01*
X136760921Y-93844474D01*
X136081447Y-93165000D01*
X136087661Y-93165000D01*
X136189394Y-93137741D01*
X136280606Y-93085080D01*
X136355080Y-93010606D01*
X136407741Y-92919394D01*
X136435000Y-92817661D01*
X136435000Y-92811448D01*
X137114474Y-93490922D01*
X137114474Y-93490921D01*
X137146859Y-93446349D01*
X137239755Y-93264031D01*
X137302990Y-93069417D01*
X137335000Y-92867317D01*
X137335000Y-92662682D01*
X137302990Y-92460582D01*
X137239755Y-92265968D01*
X137146859Y-92083650D01*
X137114474Y-92039077D01*
X137114474Y-92039076D01*
X136435000Y-92718551D01*
X136435000Y-92712339D01*
X136407741Y-92610606D01*
X136355080Y-92519394D01*
X136280606Y-92444920D01*
X136189394Y-92392259D01*
X136087661Y-92365000D01*
X136081446Y-92365000D01*
X136760922Y-91685524D01*
X136760921Y-91685523D01*
X136716359Y-91653147D01*
X136716350Y-91653141D01*
X136623369Y-91605765D01*
X136572573Y-91557790D01*
X136555778Y-91489969D01*
X136578315Y-91423835D01*
X136623370Y-91384795D01*
X136716610Y-91337287D01*
X136766144Y-91301298D01*
X136882213Y-91216971D01*
X136882215Y-91216968D01*
X136882219Y-91216966D01*
X137026966Y-91072219D01*
X137034699Y-91061574D01*
X137129121Y-90931615D01*
X137184450Y-90888949D01*
X137229439Y-90880500D01*
X141109903Y-90880500D01*
X141176942Y-90900185D01*
X141197584Y-90916819D01*
X142793181Y-92512416D01*
X142826666Y-92573739D01*
X142829500Y-92600097D01*
X142829500Y-97033480D01*
X142809815Y-97100519D01*
X142793181Y-97121161D01*
X142674531Y-97239810D01*
X142674530Y-97239811D01*
X142586522Y-97385393D01*
X142535913Y-97547807D01*
X142529500Y-97618386D01*
X142529500Y-98281613D01*
X142535913Y-98352192D01*
X142535913Y-98352194D01*
X142535914Y-98352196D01*
X142586522Y-98514606D01*
X142674528Y-98660185D01*
X142793182Y-98778839D01*
X142826666Y-98840160D01*
X142829500Y-98866519D01*
X142829500Y-101893330D01*
X142829499Y-101893348D01*
X142829499Y-102059054D01*
X142829498Y-102059054D01*
X142829499Y-102059057D01*
X142870423Y-102211785D01*
X142870424Y-102211786D01*
X142881680Y-102231284D01*
X142881681Y-102231285D01*
X142949475Y-102348709D01*
X142949481Y-102348717D01*
X143068349Y-102467585D01*
X143068355Y-102467590D01*
X143313181Y-102712416D01*
X143346666Y-102773739D01*
X143349500Y-102800097D01*
X143349500Y-102943102D01*
X143355126Y-102989954D01*
X143360122Y-103031561D01*
X143415639Y-103172343D01*
X143507077Y-103292922D01*
X143627656Y-103384360D01*
X143627657Y-103384360D01*
X143627658Y-103384361D01*
X143768436Y-103439877D01*
X143856898Y-103450500D01*
X143856903Y-103450500D01*
X144243097Y-103450500D01*
X144243102Y-103450500D01*
X144331564Y-103439877D01*
X144354511Y-103430827D01*
X144424094Y-103424545D01*
X144445482Y-103430825D01*
X144468436Y-103439877D01*
X144556898Y-103450500D01*
X144556903Y-103450500D01*
X144943097Y-103450500D01*
X144943102Y-103450500D01*
X145031564Y-103439877D01*
X145172342Y-103384361D01*
X145292922Y-103292922D01*
X145384361Y-103172342D01*
X145439877Y-103031564D01*
X145450500Y-102943102D01*
X145450500Y-102800097D01*
X145470185Y-102733059D01*
X145486819Y-102712417D01*
X145486820Y-102712416D01*
X145560520Y-102638716D01*
X145639577Y-102501784D01*
X145680500Y-102349057D01*
X145680500Y-100888034D01*
X157889500Y-100888034D01*
X157889500Y-101231965D01*
X157923210Y-101574249D01*
X157990308Y-101911572D01*
X158090150Y-102240706D01*
X158221770Y-102558464D01*
X158221772Y-102558469D01*
X158383893Y-102861775D01*
X158383904Y-102861793D01*
X158574975Y-103147751D01*
X158574985Y-103147765D01*
X158793176Y-103413632D01*
X159036367Y-103656823D01*
X159036372Y-103656827D01*
X159036373Y-103656828D01*
X159302240Y-103875019D01*
X159588213Y-104066100D01*
X159588222Y-104066105D01*
X159588224Y-104066106D01*
X159891530Y-104228227D01*
X159891532Y-104228227D01*
X159891538Y-104228231D01*
X160209295Y-104359850D01*
X160538422Y-104459690D01*
X160875750Y-104526789D01*
X161218031Y-104560500D01*
X161218034Y-104560500D01*
X161561966Y-104560500D01*
X161561969Y-104560500D01*
X161904250Y-104526789D01*
X162241578Y-104459690D01*
X162570705Y-104359850D01*
X162888462Y-104228231D01*
X163191787Y-104066100D01*
X163477760Y-103875019D01*
X163743627Y-103656828D01*
X163986828Y-103413627D01*
X164205019Y-103147760D01*
X164396100Y-102861787D01*
X164558231Y-102558462D01*
X164689850Y-102240705D01*
X164789690Y-101911578D01*
X164856789Y-101574250D01*
X164890500Y-101231969D01*
X164890500Y-100888031D01*
X164856789Y-100545750D01*
X164789690Y-100208422D01*
X164689850Y-99879295D01*
X164558231Y-99561538D01*
X164470577Y-99397550D01*
X164396106Y-99258224D01*
X164396105Y-99258222D01*
X164396100Y-99258213D01*
X164205019Y-98972240D01*
X163986828Y-98706373D01*
X163986827Y-98706372D01*
X163986823Y-98706367D01*
X163743632Y-98463176D01*
X163477765Y-98244985D01*
X163477764Y-98244984D01*
X163477760Y-98244981D01*
X163191787Y-98053900D01*
X163191782Y-98053897D01*
X163191775Y-98053893D01*
X162888469Y-97891772D01*
X162888464Y-97891770D01*
X162570706Y-97760150D01*
X162241572Y-97660308D01*
X161904248Y-97593210D01*
X161904249Y-97593210D01*
X161646456Y-97567821D01*
X161561969Y-97559500D01*
X161218031Y-97559500D01*
X161139966Y-97567188D01*
X160875750Y-97593210D01*
X160538427Y-97660308D01*
X160209293Y-97760150D01*
X159891535Y-97891770D01*
X159891530Y-97891772D01*
X159588224Y-98053893D01*
X159588206Y-98053904D01*
X159302248Y-98244975D01*
X159302234Y-98244985D01*
X159036367Y-98463176D01*
X158793176Y-98706367D01*
X158574985Y-98972234D01*
X158574975Y-98972248D01*
X158383904Y-99258206D01*
X158383893Y-99258224D01*
X158221772Y-99561530D01*
X158221770Y-99561535D01*
X158090150Y-99879293D01*
X157990308Y-100208427D01*
X157923210Y-100545750D01*
X157889500Y-100888034D01*
X145680500Y-100888034D01*
X145680500Y-98866519D01*
X145700185Y-98799480D01*
X145716814Y-98778842D01*
X145835472Y-98660185D01*
X145923478Y-98514606D01*
X145974086Y-98352196D01*
X145980500Y-98281616D01*
X145980500Y-97618384D01*
X145974086Y-97547804D01*
X145923478Y-97385394D01*
X145835472Y-97239815D01*
X145835470Y-97239813D01*
X145835469Y-97239811D01*
X145716819Y-97121161D01*
X145683334Y-97059838D01*
X145680500Y-97033480D01*
X145680500Y-95340097D01*
X145700185Y-95273058D01*
X145716819Y-95252416D01*
X150512417Y-90456819D01*
X150539344Y-90442115D01*
X150565163Y-90425523D01*
X150571363Y-90424631D01*
X150573740Y-90423334D01*
X150600098Y-90420500D01*
X150655500Y-90420500D01*
X150722539Y-90440185D01*
X150768294Y-90492989D01*
X150779500Y-90544500D01*
X150779500Y-91662870D01*
X150779501Y-91662876D01*
X150785908Y-91722483D01*
X150836202Y-91857328D01*
X150836206Y-91857335D01*
X150922452Y-91972544D01*
X150922455Y-91972547D01*
X151037664Y-92058793D01*
X151037671Y-92058797D01*
X151172517Y-92109091D01*
X151172516Y-92109091D01*
X151179444Y-92109835D01*
X151232127Y-92115500D01*
X152827872Y-92115499D01*
X152887483Y-92109091D01*
X153022331Y-92058796D01*
X153137546Y-91972546D01*
X153223796Y-91857331D01*
X153274091Y-91722483D01*
X153280500Y-91662873D01*
X153280499Y-90544499D01*
X153300184Y-90477461D01*
X153352987Y-90431706D01*
X153404499Y-90420500D01*
X166509903Y-90420500D01*
X166576942Y-90440185D01*
X166597584Y-90456819D01*
X167893181Y-91752416D01*
X167926666Y-91813739D01*
X167929500Y-91840097D01*
X167929500Y-104403330D01*
X167929499Y-104403348D01*
X167929499Y-104569054D01*
X167929498Y-104569054D01*
X167970423Y-104721785D01*
X167999358Y-104771900D01*
X167999359Y-104771904D01*
X167999360Y-104771904D01*
X168049479Y-104858714D01*
X168049481Y-104858717D01*
X168168349Y-104977585D01*
X168168355Y-104977590D01*
X170585139Y-107394374D01*
X170585149Y-107394385D01*
X170589479Y-107398715D01*
X170589480Y-107398716D01*
X170701284Y-107510520D01*
X170701286Y-107510521D01*
X170701290Y-107510524D01*
X170838209Y-107589573D01*
X170838216Y-107589577D01*
X170950019Y-107619534D01*
X170990942Y-107630500D01*
X170990943Y-107630500D01*
X182010501Y-107630500D01*
X182077540Y-107650185D01*
X182123295Y-107702989D01*
X182133437Y-107749611D01*
X182134099Y-107749576D01*
X182134146Y-107749571D01*
X182134146Y-107749573D01*
X182134324Y-107749564D01*
X182134501Y-107752876D01*
X182140908Y-107812483D01*
X182191202Y-107947328D01*
X182191206Y-107947335D01*
X182277452Y-108062544D01*
X182277455Y-108062547D01*
X182392664Y-108148793D01*
X182392671Y-108148797D01*
X182527517Y-108199091D01*
X182527516Y-108199091D01*
X182534444Y-108199835D01*
X182587127Y-108205500D01*
X184032872Y-108205499D01*
X184092483Y-108199091D01*
X184227331Y-108148796D01*
X184342546Y-108062546D01*
X184406541Y-107977059D01*
X184462473Y-107935190D01*
X184532165Y-107930206D01*
X184578691Y-107951054D01*
X184694161Y-108034947D01*
X184858956Y-108118915D01*
X184858959Y-108118916D01*
X185034852Y-108176066D01*
X185217527Y-108205000D01*
X185402473Y-108205000D01*
X185585147Y-108176066D01*
X185761040Y-108118916D01*
X185761043Y-108118915D01*
X185925836Y-108034947D01*
X185925845Y-108034942D01*
X185946430Y-108019984D01*
X185946430Y-108019983D01*
X185356447Y-107430000D01*
X185362661Y-107430000D01*
X185464394Y-107402741D01*
X185555606Y-107350080D01*
X185630080Y-107275606D01*
X185682741Y-107184394D01*
X185710000Y-107082661D01*
X185710000Y-107076447D01*
X186299983Y-107666430D01*
X186299984Y-107666430D01*
X186314942Y-107645845D01*
X186314947Y-107645836D01*
X186395015Y-107488697D01*
X186442990Y-107437901D01*
X186510811Y-107421106D01*
X186576946Y-107443643D01*
X186620397Y-107498359D01*
X186629500Y-107544992D01*
X186629500Y-108375500D01*
X186609815Y-108442539D01*
X186557011Y-108488294D01*
X186505500Y-108499500D01*
X133827477Y-108499500D01*
X133760438Y-108479815D01*
X133714683Y-108427011D01*
X133703482Y-108376649D01*
X133701891Y-108205000D01*
X133500020Y-86422234D01*
X133500016Y-86420952D01*
X133500261Y-86287828D01*
X133512202Y-79779573D01*
X133528855Y-70704272D01*
X133548663Y-70637269D01*
X133601551Y-70591611D01*
X133652855Y-70580500D01*
X186505500Y-70580500D01*
X186572539Y-70600185D01*
G37*
%TD.AperFunction*%
%TD*%
M02*
